<svg width="500" height="500" viewBox="0 0 500 500" fill="none" xmlns="http://www.w3.org/2000/svg">
<path d="M405.195 255.092C316.785 204.049 173.913 204.049 86.0779 255.093C-1.76305 306.14 -1.29706 388.897 87.1129 439.941C175.528 490.988 318.401 490.987 406.241 439.939C494.076 388.896 493.61 306.139 405.195 255.092Z" fill="#F5F7F8"/>
<path d="M441.754 354.442C449.674 349.869 462.472 349.87 470.34 354.442C478.209 359.015 478.167 366.428 470.247 371.001C462.327 375.574 449.528 375.574 441.66 371.001C433.792 366.429 433.833 359.015 441.754 354.442Z" fill="#E6E6E6"/>
<path d="M180.081 401.995C202.351 389.137 238.339 389.138 260.465 401.995C282.591 414.853 282.474 435.699 260.204 448.557C237.933 461.415 201.944 461.415 179.818 448.557C157.693 435.699 157.81 414.853 180.081 401.995Z" fill="#E6E6E6"/>
<path d="M172.439 272.192L419.08 413.604L431.731 406.23L185.032 264.852L172.439 272.192Z" fill="#E6E6E6"/>
<path d="M436.825 328.132L456 328.691L475.175 328.132C476.001 341.081 473.473 354.278 469.987 360.724L469.973 360.722C469.349 362.136 468.094 363.478 466.177 364.584C460.519 367.851 451.376 367.851 445.755 364.584C443.806 363.451 442.553 362.073 441.962 360.622C438.504 354.141 436.003 341.017 436.825 328.132Z" fill="white"/>
<path d="M442.486 320.278C434.973 324.616 434.933 331.648 442.397 335.985C449.861 340.323 462.002 340.323 469.515 335.985C477.027 331.648 477.067 324.615 469.603 320.278C462.139 315.941 449.999 315.941 442.486 320.278Z" fill="#EBEBEB"/>
<path d="M445.457 322.004C439.595 325.388 439.565 330.875 445.388 334.259C451.211 337.643 460.683 337.643 466.544 334.259C472.405 330.875 472.436 325.389 466.613 322.005C460.79 318.621 451.318 318.621 445.457 322.004Z" fill="#E0E0E0"/>
<g opacity="0.15">
<path d="M445.457 322.004C439.595 325.388 439.565 330.875 445.388 334.259C451.211 337.643 460.683 337.643 466.544 334.259C472.405 330.875 472.436 325.389 466.613 322.005C460.79 318.621 451.318 318.621 445.457 322.004Z" fill="black"/>
</g>
<path d="M465.781 288.891C468.9 285.014 472.521 281.541 475.381 277.469C477.332 274.691 478.963 271.291 478.143 267.997C477.382 264.941 474.526 262.667 471.43 262.088C468.334 261.509 465.093 262.434 462.419 264.098C459.745 265.762 457.572 268.117 455.609 270.58C444.88 284.045 439.654 301.767 441.36 318.899C441.555 320.863 441.885 322.929 443.139 324.452C444.485 326.086 446.842 326.806 448.871 326.204C454.094 324.654 453.402 317.597 454.255 313.446C455.425 307.757 457.457 302.246 460.255 297.156C461.852 294.248 463.701 291.477 465.781 288.891Z" fill="#455A64"/>
<path opacity="0.2" d="M465.781 288.891C468.9 285.014 472.521 281.541 475.381 277.469C477.332 274.691 478.963 271.291 478.143 267.997C477.382 264.941 474.526 262.667 471.43 262.088C468.334 261.509 465.093 262.434 462.419 264.098C459.745 265.762 457.572 268.117 455.609 270.58C444.88 284.045 439.654 301.767 441.36 318.899C441.555 320.863 441.885 322.929 443.139 324.452C444.485 326.086 446.842 326.806 448.871 326.204C454.094 324.654 453.402 317.597 454.255 313.446C455.425 307.757 457.457 302.246 460.255 297.156C461.852 294.248 463.701 291.477 465.781 288.891Z" fill="white"/>
<path d="M448.544 320.945C448.746 320.905 448.903 320.732 448.913 320.517C449.279 312.132 452.004 283.511 471.728 267.273C471.923 267.113 471.951 266.824 471.79 266.629C471.63 266.434 471.342 266.407 471.147 266.566C451.132 283.046 448.369 311.995 447.999 320.476C447.989 320.728 448.184 320.942 448.436 320.953C448.473 320.955 448.509 320.952 448.544 320.945Z" fill="#F0F0F0"/>
<path d="M445.662 321.853C446.259 325.144 449.086 329.218 452.067 330.735C455.022 332.239 458.452 332.641 461.759 332.357C465.125 332.068 468.395 331.102 471.597 330.024C473.178 329.492 474.936 328.773 475.105 326.814C475.194 325.78 474.73 324.779 473.986 324.055C473.674 323.751 473.331 323.456 472.965 323.176C472.221 322.607 472.57 321.424 473.505 321.36C474.446 321.296 475.382 321.19 476.309 321.013C478.45 320.604 480.558 319.788 482.196 318.35C483.426 317.27 484.358 315.862 484.915 314.323C485.391 313.006 485.524 311.353 484.527 310.37C483.955 309.806 483.132 309.592 482.346 309.422C481.645 309.27 480.942 309.142 480.237 309.032C479.3 308.886 479.145 307.608 480.02 307.243L482.995 306.004C483.821 305.66 484.681 305.291 485.253 304.602C486.164 303.504 486.099 301.905 485.826 300.504C485.462 298.642 484.819 296.846 484.381 295C483.943 293.154 483.713 291.206 484.185 289.368C478.63 288.805 472.923 289.07 467.521 290.48C465.908 290.901 464.276 291.43 462.974 292.471C461.119 293.955 460.636 296.183 460.833 298.596C460.87 299.054 460.241 299.227 460.022 298.823L458.121 295.318C457.548 294.262 456.253 293.864 455.165 294.374C453.525 295.144 452.061 296.377 450.818 297.793C449.478 299.32 448.794 301.332 448.958 303.356C449.18 306.094 449.658 308.868 450.344 311.524C450.524 312.22 449.744 312.744 449.161 312.324L449.07 312.258C448.551 311.882 447.914 311.658 447.278 311.737C445.598 311.945 445.168 313.648 445.057 315.097C444.894 317.195 445.266 319.668 445.662 321.853Z" fill="#455A64"/>
<path opacity="0.2" d="M445.662 321.853C446.259 325.144 449.086 329.218 452.067 330.735C455.022 332.239 458.452 332.641 461.759 332.357C465.125 332.068 468.395 331.102 471.597 330.024C473.178 329.492 474.936 328.773 475.105 326.814C475.194 325.78 474.73 324.779 473.986 324.055C473.674 323.751 473.331 323.456 472.965 323.176C472.221 322.607 472.57 321.424 473.505 321.36C474.446 321.296 475.382 321.19 476.309 321.013C478.45 320.604 480.558 319.788 482.196 318.35C483.426 317.27 484.358 315.862 484.915 314.323C485.391 313.006 485.524 311.353 484.527 310.37C483.955 309.806 483.132 309.592 482.346 309.422C481.645 309.27 480.942 309.142 480.237 309.032C479.3 308.886 479.145 307.608 480.02 307.243L482.995 306.004C483.821 305.66 484.681 305.291 485.253 304.602C486.164 303.504 486.099 301.905 485.826 300.504C485.462 298.642 484.819 296.846 484.381 295C483.943 293.154 483.713 291.206 484.185 289.368C478.63 288.805 472.923 289.07 467.521 290.48C465.908 290.901 464.276 291.43 462.974 292.471C461.119 293.955 460.636 296.183 460.833 298.596C460.87 299.054 460.241 299.227 460.022 298.823L458.121 295.318C457.548 294.262 456.253 293.864 455.165 294.374C453.525 295.144 452.061 296.377 450.818 297.793C449.478 299.32 448.794 301.332 448.958 303.356C449.18 306.094 449.658 308.868 450.344 311.524C450.524 312.22 449.744 312.744 449.161 312.324L449.07 312.258C448.551 311.882 447.914 311.658 447.278 311.737C445.598 311.945 445.168 313.648 445.057 315.097C444.894 317.195 445.266 319.668 445.662 321.853Z" fill="black"/>
<path opacity="0.2" d="M445.662 321.853C446.259 325.144 449.086 329.218 452.067 330.735C455.022 332.239 458.452 332.641 461.759 332.357C465.125 332.068 468.395 331.102 471.597 330.024C473.178 329.492 474.936 328.773 475.105 326.814C475.194 325.78 474.73 324.779 473.986 324.055C473.674 323.751 473.331 323.456 472.965 323.176C472.221 322.607 472.57 321.424 473.505 321.36C474.446 321.296 475.382 321.19 476.309 321.013C478.45 320.604 480.558 319.788 482.196 318.35C483.426 317.27 484.358 315.862 484.915 314.323C485.391 313.006 485.524 311.353 484.527 310.37C483.955 309.806 483.132 309.592 482.346 309.422C481.645 309.27 480.942 309.142 480.237 309.032C479.3 308.886 479.145 307.608 480.02 307.243L482.995 306.004C483.821 305.66 484.681 305.291 485.253 304.602C486.164 303.504 486.099 301.905 485.826 300.504C485.462 298.642 484.819 296.846 484.381 295C483.943 293.154 483.713 291.206 484.185 289.368C478.63 288.805 472.923 289.07 467.521 290.48C465.908 290.901 464.276 291.43 462.974 292.471C461.119 293.955 460.636 296.183 460.833 298.596C460.87 299.054 460.241 299.227 460.022 298.823L458.121 295.318C457.548 294.262 456.253 293.864 455.165 294.374C453.525 295.144 452.061 296.377 450.818 297.793C449.478 299.32 448.794 301.332 448.958 303.356C449.18 306.094 449.658 308.868 450.344 311.524C450.524 312.22 449.744 312.744 449.161 312.324L449.07 312.258C448.551 311.882 447.914 311.658 447.278 311.737C445.598 311.945 445.168 313.648 445.057 315.097C444.894 317.195 445.266 319.668 445.662 321.853Z" fill="white"/>
<path d="M454.499 330.277C454.522 330.16 455.673 324.584 458.981 317.288C458.981 317.157 459.037 317.035 459.139 316.946C459.243 316.72 459.345 316.496 459.453 316.267C458.503 307.543 455.048 301.456 455.014 301.396C454.888 301.177 454.963 300.898 455.182 300.772C455.401 300.649 455.679 300.721 455.806 300.94C455.84 300.999 459.019 306.597 460.183 314.764C463.977 307.156 470.029 298.258 479.371 291.756C479.579 291.613 479.863 291.663 480.007 291.87C480.151 292.077 480.1 292.362 479.893 292.506C470.257 299.212 464.175 308.509 460.48 316.224C468.009 312.558 476.008 314.007 476.364 314.075C476.611 314.122 476.774 314.361 476.727 314.609C476.691 314.798 476.544 314.937 476.367 314.972C476.311 314.983 476.252 314.984 476.193 314.973C476.106 314.956 467.385 313.371 459.845 317.587C456.562 324.809 455.421 330.339 455.398 330.454C455.361 330.641 455.214 330.779 455.038 330.814C454.981 330.825 454.921 330.826 454.862 330.814C454.611 330.764 454.45 330.524 454.499 330.277Z" fill="#F0F0F0"/>
<path d="M417.009 358.213L417.335 172.945C417.347 168.825 414.449 163.799 410.858 161.726L181.12 29.438C179.337 28.409 177.719 28.304 176.541 28.964L183.337 25.026V25.032C184.526 24.278 186.201 24.341 188.058 25.413L417.795 157.702C421.386 159.776 424.284 164.801 424.272 168.921L423.946 354.189C423.94 356.133 423.283 357.522 422.218 358.239L422.219 358.24L422.211 358.244C422.094 358.322 421.973 358.392 421.847 358.453L415.145 362.356C416.291 361.67 417.003 360.24 417.009 358.213Z" fill="#14B8A6"/>
<path opacity="0.3" d="M183.336 25.026V25.032C184.525 24.278 186.2 24.341 188.057 25.413L417.794 157.702C419.79 158.854 421.57 160.92 422.757 163.234L415.814 167.247C414.627 164.938 412.85 162.877 410.857 161.726L181.12 29.438C179.337 28.409 177.719 28.304 176.541 28.964L183.336 25.026Z" fill="white"/>
<path opacity="0.2" d="M424.272 168.921L423.946 354.189C423.94 356.133 423.283 357.522 422.218 358.239L422.219 358.24L422.211 358.244C422.094 358.322 421.973 358.392 421.847 358.453L415.145 362.356C416.291 361.669 417.003 360.24 417.009 358.213L417.335 172.945C417.34 171.111 416.767 169.099 415.814 167.246L422.757 163.233C423.706 165.083 424.277 167.091 424.272 168.921Z" fill="white"/>
<path d="M417.316 181.363L417.009 358.214C417.003 360.241 416.292 361.671 415.145 362.357C415.111 362.377 415.078 362.397 415.043 362.416C415.027 362.425 415.01 362.431 414.994 362.439C413.823 363.055 412.237 362.938 410.489 361.929L180.751 229.64C177.165 227.57 174.262 222.541 174.274 218.421L174.582 41.342L417.316 181.363Z" fill="#14B8A6"/>
<path opacity="0.2" d="M417.316 181.363L417.009 358.214C417.003 360.241 416.292 361.671 415.145 362.357C415.111 362.377 415.078 362.397 415.043 362.416C415.027 362.425 415.01 362.431 414.994 362.439C413.823 363.055 412.237 362.938 410.489 361.929L180.751 229.64C177.165 227.57 174.262 222.541 174.274 218.421L174.582 41.342L417.316 181.363Z" fill="black"/>
<path d="M203.161 224.138L203.417 77.164L401.009 190.763L400.753 337.523L203.161 224.138Z" fill="white"/>
<path d="M284.97 211.71L285.084 135.728L372.684 186.091L372.571 261.978L284.97 211.71Z" fill="#455A64"/>
<path d="M174.6 33.153C174.606 31.126 175.319 29.697 176.466 29.011C176.477 29.004 176.486 28.996 176.497 28.989C176.511 28.981 176.526 28.972 176.54 28.964C177.718 28.304 179.336 28.408 181.119 29.437L410.856 161.725C414.448 163.799 417.345 168.824 417.333 172.944L417.314 181.361L174.582 41.342L174.6 33.153Z" fill="#14B8A6"/>
<path opacity="0.3" d="M174.6 33.153C174.606 31.126 175.319 29.697 176.466 29.011C176.477 29.004 176.486 28.996 176.497 28.989C176.511 28.981 176.526 28.972 176.54 28.964C177.718 28.304 179.336 28.408 181.119 29.437L410.856 161.725C414.448 163.799 417.345 168.824 417.333 172.944L417.314 181.361L174.582 41.342L174.6 33.153Z" fill="black"/>
<g opacity="0.39">
<path d="M191.804 42.1C190.825 41.535 190.029 41.989 190.026 43.113C190.023 44.238 190.814 45.607 191.792 46.172C192.771 46.737 193.567 46.283 193.57 45.159C193.574 44.035 192.783 42.665 191.804 42.1Z" fill="white"/>
<path d="M186.964 39.306C185.985 38.741 185.189 39.195 185.186 40.319C185.183 41.443 185.974 42.813 186.952 43.378C187.931 43.943 188.727 43.489 188.73 42.365C188.733 41.241 187.943 39.871 186.964 39.306Z" fill="white"/>
<path d="M182.124 36.511C181.145 35.946 180.349 36.4 180.346 37.524C180.343 38.648 181.134 40.018 182.112 40.583C183.091 41.148 183.887 40.694 183.89 39.57C183.893 38.446 183.103 37.076 182.124 36.511Z" fill="white"/>
</g>
<path d="M191.079 102.504L191.053 111.732L191.079 102.504Z" fill="white"/>
<path d="M191.042 115.279L183.012 110.642L191.043 115.279L191.017 124.507H191.016L191.042 115.279Z" fill="white"/>
<path d="M183.094 81.552L191.125 86.188L183.094 81.552Z" fill="white"/>
<path d="M186.478 87.051L191.115 89.729L191.089 98.957L191.115 89.729L186.478 87.051Z" fill="white"/>
<path d="M183.058 94.32L191.089 98.957L183.058 94.32Z" fill="white"/>
<path d="M183.022 107.095L191.053 111.732L183.022 107.095Z" fill="white"/>
<path d="M186.202 184.595L190.839 187.272L190.813 196.5H190.812L190.838 187.272L186.202 184.595Z" fill="white"/>
<path d="M183.048 97.867L191.079 102.504L191.053 111.732L183.022 107.095L183.048 97.867Z" fill="white"/>
<path d="M191.016 124.507L182.985 119.87L183.012 110.642L191.042 115.279L191.016 124.507Z" fill="white"/>
<path d="M182.88 157.092L190.911 161.728L190.885 170.957L182.854 166.32L182.88 157.092Z" fill="white"/>
<path d="M190.849 183.725L182.817 179.088L182.844 169.86L190.875 174.497L190.849 183.725Z" fill="white"/>
<path d="M182.916 144.316L190.947 148.953L190.921 158.182L182.89 153.545L182.916 144.316Z" fill="white"/>
<path d="M180.151 206.117L193.359 213.743L193.547 147.478L180.339 139.852L180.151 206.117ZM182.844 169.86L190.875 174.497L190.849 183.725L182.818 179.088L182.844 169.86ZM190.921 158.182L182.89 153.545L182.916 144.317L190.947 148.954L190.921 158.182ZM190.885 170.957L182.854 166.32L182.88 157.092L190.911 161.729L190.885 170.957ZM190.812 196.5L182.781 191.863L182.807 182.635L186.201 184.595L190.838 187.272L190.812 196.5ZM182.745 204.632L182.771 195.404L190.802 200.041L190.776 209.269L182.745 204.632Z" fill="#14B8A6"/>
<path d="M180.355 134.124L193.563 141.75L193.751 75.479L180.543 67.853L180.355 134.124ZM191.125 86.188L183.094 81.551L183.12 72.322L191.151 76.959L191.125 86.188ZM191.089 98.957L183.058 94.32L183.084 85.092L186.479 87.052L191.116 89.729L191.089 98.957ZM191.053 111.732L183.022 107.095L183.048 97.867L191.079 102.504L191.053 111.732ZM191.017 124.507L182.986 119.87L183.012 110.642L191.043 115.279L191.017 124.507ZM190.98 137.276L182.949 132.639L182.975 123.411L191.006 128.048L190.98 137.276Z" fill="#14B8A6"/>
<path d="M180.151 206.117L193.359 213.743L193.547 147.478L180.339 139.852L180.151 206.117ZM182.844 169.86L190.875 174.497L190.849 183.725L182.818 179.088L182.844 169.86ZM190.921 158.182L182.89 153.545L182.916 144.317L190.947 148.954L190.921 158.182ZM190.885 170.957L182.854 166.32L182.88 157.092L190.911 161.729L190.885 170.957ZM190.812 196.5L182.781 191.863L182.807 182.635L186.201 184.595L190.838 187.272L190.812 196.5ZM182.745 204.632L182.771 195.404L190.802 200.041L190.776 209.269L182.745 204.632Z" fill="#455A64"/>
<path d="M180.355 134.124L193.563 141.75L193.751 75.479L180.543 67.853L180.355 134.124ZM191.125 86.188L183.094 81.551L183.12 72.322L191.151 76.959L191.125 86.188ZM191.089 98.957L183.058 94.32L183.084 85.092L186.479 87.052L191.116 89.729L191.089 98.957ZM191.053 111.732L183.022 107.095L183.048 97.867L191.079 102.504L191.053 111.732ZM191.017 124.507L182.986 119.87L183.012 110.642L191.043 115.279L191.017 124.507ZM190.98 137.276L182.949 132.639L182.975 123.411L191.006 128.048L190.98 137.276Z" fill="#455A64"/>
<path d="M183.058 94.32L183.084 85.092L186.478 87.051L191.115 89.729L191.089 98.957L183.058 94.32Z" fill="white"/>
<path d="M180.543 67.853L180.557 62.706L193.766 70.332L193.751 75.479L180.543 67.853Z" fill="white"/>
<path d="M183.094 81.552L183.12 72.323L191.151 76.96L191.125 86.188L183.094 81.552Z" fill="white"/>
<path d="M182.975 123.41V123.411L191.006 128.047L190.98 137.276L182.949 132.639L182.975 123.41Z" fill="white"/>
<path d="M182.781 191.863L182.807 182.635L186.202 184.595L190.838 187.272L190.812 196.5L182.781 191.863Z" fill="white"/>
<path d="M190.802 200.04L190.776 209.269L182.745 204.632L182.771 195.404L190.802 200.04Z" fill="white"/>
<path d="M352.366 264.715L352.354 268.921L284.715 229.298L284.727 225.092L352.366 264.715Z" fill="#37474F"/>
<path d="M331.951 279.841L331.939 284.056L284.639 256.174L284.65 251.96L331.951 279.841Z" fill="#37474F"/>
<path d="M320.051 258.931L320.039 263.145L284.678 242.157L284.69 237.943L320.051 258.931Z" fill="#37474F"/>
<path d="M352.308 285.158L352.296 289.372L284.657 249.749L284.669 245.535L352.308 285.158Z" fill="#37474F"/>
<path d="M352.347 271.141L352.335 275.347L284.696 235.723L284.708 231.517L352.347 271.141Z" fill="#37474F"/>
<path d="M224.885 205.12C229.357 207.702 232.97 213.96 232.955 219.099C232.94 224.238 229.304 226.31 224.832 223.728C220.36 221.146 216.747 214.888 216.762 209.749C216.777 204.611 220.413 202.538 224.885 205.12Z" fill="#E0E0E0"/>
<path d="M224.952 181.541C229.424 184.123 233.037 190.381 233.022 195.52C233.008 200.659 229.371 202.731 224.899 200.149C220.427 197.567 216.814 191.309 216.829 186.17C216.844 181.032 220.48 178.959 224.952 181.541Z" fill="#E0E0E0"/>
<path d="M246.951 194.242C251.423 196.824 255.036 203.082 255.021 208.221C255.007 213.36 251.37 215.432 246.898 212.85C242.426 210.268 238.813 204.01 238.828 198.871C238.842 193.733 242.479 191.66 246.951 194.242Z" fill="#E0E0E0"/>
<path d="M268.876 230.518C273.348 233.1 276.961 239.358 276.946 244.496C276.932 249.635 273.295 251.707 268.823 249.125C264.351 246.543 260.738 240.285 260.753 235.146C260.768 230.009 264.404 227.936 268.876 230.518Z" fill="#E0E0E0"/>
<path d="M268.943 206.939C273.415 209.521 277.028 215.779 277.013 220.917C276.999 226.056 273.362 228.128 268.89 225.546C264.418 222.964 260.805 216.706 260.82 211.567C260.835 206.43 264.471 204.357 268.943 206.939Z" fill="#E0E0E0"/>
<path d="M246.884 217.821C251.356 220.403 254.969 226.661 254.954 231.8C254.939 236.939 251.303 239.011 246.831 236.429C242.359 233.847 238.746 227.589 238.761 222.45C238.776 217.312 242.412 215.239 246.884 217.821Z" fill="#E0E0E0"/>
<path d="M440.63 130.104L353.947 80.058C353.262 79.663 352.642 79.627 352.193 79.886L345.709 84.534L345.71 84.535C346.158 84.283 346.772 84.321 347.45 84.713L434.133 134.759C435.5 135.548 436.604 137.468 436.599 139.039L436.263 216.429C436.261 217.188 435.997 217.723 435.574 217.992L435.576 217.996L442.14 213.295L442.135 213.285C442.518 213.003 442.759 212.492 442.761 211.774L443.097 134.384C443.1 132.813 441.997 130.894 440.63 130.104Z" fill="#14B8A6"/>
<path d="M436.263 216.429L436.599 139.039C436.604 137.468 435.5 135.548 434.133 134.759L347.45 84.713C346.772 84.321 346.158 84.284 345.71 84.535C345.255 84.79 344.97 85.344 344.968 86.136L344.632 163.526C344.628 165.097 345.731 167.017 347.098 167.806L433.781 217.852C434.488 218.26 435.122 218.279 435.574 217.992C435.997 217.723 436.261 217.188 436.263 216.429Z" fill="#455A64"/>
<g opacity="0.3">
<path d="M358.142 141.412L358.116 150.587L350.131 145.977L350.157 136.802L358.142 141.412Z" fill="black"/>
</g>
<g opacity="0.3">
<path d="M358.142 158.585L358.116 167.761L350.131 163.151L350.157 153.975L358.142 158.585Z" fill="black"/>
</g>
<path d="M366.132 163.195L366.106 172.37L358.121 167.76L358.147 158.585L366.132 163.195Z" fill="white"/>
<g opacity="0.5">
<path d="M410.377 174.372L410.367 177.952L362.852 150.52L362.863 146.939L410.377 174.372Z" fill="white"/>
</g>
<g opacity="0.3">
<path d="M358.182 127.338L358.156 136.513L350.171 131.903L350.197 122.728L358.182 127.338Z" fill="black"/>
</g>
<g opacity="0.5">
<path d="M410.457 146.216L410.447 149.804L362.932 122.372L362.942 118.784L410.457 146.216Z" fill="white"/>
</g>
<g opacity="0.5">
<path d="M410.417 160.298L410.407 163.878L362.892 136.446L362.902 132.865L410.417 160.298Z" fill="white"/>
</g>
<g opacity="0.3">
<path d="M358.222 113.257L358.196 122.439L350.211 117.829L350.237 108.646L358.222 113.257Z" fill="black"/>
</g>
<path d="M431.099 155.332L431.073 164.515L414.67 155.044L414.696 145.862L431.099 155.332Z" fill="white"/>
<path d="M431.02 183.488L430.993 192.663L414.59 183.193L414.616 174.018L431.02 183.488Z" fill="white"/>
<path d="M431.059 169.414L431.033 178.589L414.63 169.119L414.656 159.943L431.059 169.414Z" fill="white"/>
<g opacity="0.3">
<path d="M434.133 134.753C435.5 135.542 436.604 137.462 436.599 139.033L436.578 146.435L383.277 115.662L383.306 105.409L434.133 134.753Z" fill="black"/>
</g>
<path d="M378.494 107.206L348.775 90.048L348.765 93.445L378.484 110.604L378.494 107.206Z" fill="white"/>
<path d="M426.793 133.082L426.791 134.038L432.779 137.495L432.782 136.539L426.793 133.082Z" fill="white"/>
<path d="M426.777 138.947L432.765 142.404L432.768 141.457L426.779 137.999L426.777 138.947Z" fill="white"/>
<path d="M426.786 135.677L432.774 139.135L432.777 138.178L426.789 134.721L426.786 135.677Z" fill="white"/>
<path d="M426.781 137.308L432.77 140.765L432.772 139.818L426.784 136.36L426.781 137.308Z" fill="white"/>
<path d="M440.63 130.104L353.947 80.058C353.262 79.663 352.642 79.627 352.193 79.886L345.709 84.534L345.71 84.535C346.158 84.283 346.772 84.321 347.45 84.713L434.133 134.759C434.896 135.2 435.569 135.996 436.021 136.884L442.834 132.97C442.431 131.798 441.602 130.665 440.63 130.104Z" fill="#37474F"/>
<path d="M436.02 136.884C436.378 137.586 436.6 138.345 436.598 139.039L436.262 216.429C436.26 217.188 435.996 217.723 435.573 217.992L435.575 217.996L442.139 213.295L442.134 213.285C442.517 213.003 442.758 212.492 442.76 211.774L443.096 134.384C443.097 133.93 442.997 133.447 442.834 132.97L436.02 136.884Z" fill="#263238"/>
<path d="M306.762 74.473L220.079 24.427C219.394 24.032 218.774 23.996 218.325 24.255L211.841 28.903L211.842 28.904C212.29 28.652 212.904 28.69 213.582 29.082L300.265 79.128C301.632 79.917 302.735 81.837 302.731 83.408L302.395 118.8C302.393 119.559 302.129 120.094 301.706 120.363L301.708 120.367L308.272 115.666L308.267 115.656C308.65 115.374 308.891 114.862 308.893 114.145L309.229 78.753C309.232 77.182 308.128 75.263 306.762 74.473Z" fill="#14B8A6"/>
<path d="M302.394 118.8L302.73 83.408C302.734 81.837 301.631 79.917 300.264 79.128L213.581 29.082C212.903 28.69 212.289 28.653 211.841 28.904C211.386 29.159 211.101 29.713 211.099 30.505L210.763 65.897C210.758 67.468 211.862 69.388 213.229 70.177L299.912 120.223C300.619 120.631 301.253 120.65 301.705 120.363C302.128 120.094 302.392 119.559 302.394 118.8Z" fill="#455A64"/>
<g opacity="0.5">
<path d="M227.467 57.501L227.431 70.154L216.428 63.802L216.464 51.148L227.467 57.501Z" fill="white"/>
</g>
<g opacity="0.5">
<path d="M244.625 67.004L244.589 79.658L233.586 73.305L233.622 60.651L244.625 67.004Z" fill="white"/>
</g>
<g opacity="0.5">
<path d="M261.784 76.507L261.748 89.161L250.744 82.808L250.78 70.154L261.784 76.507Z" fill="white"/>
</g>
<g opacity="0.5">
<path d="M278.942 86.011L278.906 98.664L267.903 92.312L267.939 79.658L278.942 86.011Z" fill="white"/>
</g>
<g opacity="0.5">
<path d="M296.1 95.514L296.064 108.168L285.061 101.815L285.097 89.161L296.1 95.514Z" fill="white"/>
</g>
<g opacity="0.3">
<path d="M300.264 79.122C301.631 79.911 302.734 81.831 302.73 83.402L302.709 90.804L249.408 60.031L249.437 49.778L300.264 79.122Z" fill="black"/>
</g>
<path d="M244.625 51.575L214.906 34.417L214.897 37.815L244.616 54.973L244.625 51.575Z" fill="white"/>
<path d="M292.925 77.451L292.922 78.407L298.91 81.865L298.913 80.908L292.925 77.451Z" fill="white"/>
<path d="M292.908 83.316L298.896 86.773L298.899 85.826L292.911 82.369L292.908 83.316Z" fill="white"/>
<path d="M292.917 80.046L298.906 83.504L298.908 82.548L292.92 79.09L292.917 80.046Z" fill="white"/>
<path d="M292.913 81.677L298.901 85.134L298.904 84.187L292.915 80.729L292.913 81.677Z" fill="white"/>
<path d="M306.762 74.473L220.079 24.427C219.394 24.032 218.774 23.996 218.325 24.255L211.841 28.903L211.842 28.904C212.29 28.652 212.904 28.69 213.582 29.082L300.265 79.128C301.028 79.569 301.701 80.365 302.153 81.253L308.966 77.339C308.563 76.167 307.733 75.034 306.762 74.473Z" fill="#37474F"/>
<path d="M302.152 81.253C302.51 81.956 302.732 82.714 302.73 83.408L302.394 118.8C302.392 119.559 302.128 120.094 301.705 120.363L301.707 120.367L308.271 115.666L308.266 115.656C308.649 115.374 308.89 114.862 308.892 114.145L309.228 78.753C309.229 78.299 309.129 77.816 308.966 77.339L302.152 81.253Z" fill="#263238"/>
<path d="M440.63 230.463L353.947 180.417C353.262 180.022 352.642 179.986 352.193 180.245L345.709 184.893L345.71 184.894C346.158 184.643 346.772 184.68 347.45 185.072L434.133 235.118C435.5 235.907 436.604 237.827 436.599 239.398L436.263 357.82C436.261 358.579 435.997 359.114 435.574 359.383L435.576 359.387L442.14 354.686L442.135 354.676C442.518 354.394 442.759 353.883 442.761 353.165L443.097 234.743C443.1 233.172 441.997 231.252 440.63 230.463Z" fill="#14B8A6"/>
<path d="M436.263 357.82L436.599 239.398C436.604 237.827 435.5 235.907 434.133 235.118L347.45 185.072C346.772 184.68 346.158 184.643 345.71 184.894C345.255 185.149 344.97 185.703 344.968 186.495L344.632 304.917C344.628 306.488 345.731 308.408 347.098 309.197L433.781 359.244C434.488 359.652 435.122 359.671 435.574 359.384C435.997 359.114 436.261 358.578 436.263 357.82Z" fill="#14B8A6"/>
<g opacity="0.3">
<path d="M434.133 235.112C435.5 235.901 436.604 237.821 436.599 239.392L436.578 246.794L383.277 216.021L383.306 205.768L434.133 235.112Z" fill="black"/>
</g>
<path d="M354.653 268.739L348.568 265.226L348.547 272.619L354.632 276.133L354.653 268.739Z" fill="white"/>
<path d="M354.683 258.281L348.598 254.768L348.577 262.161L354.662 265.674L354.683 258.281Z" fill="white"/>
<path d="M378.494 207.564L348.775 190.406L348.765 193.804L378.484 210.962L378.494 207.564Z" fill="white"/>
<path d="M430.301 265.682L429.716 264.677L428.621 265.301L427.532 263.416L426.943 263.743L428.617 266.642L430.301 265.682Z" fill="white"/>
<path d="M354.726 242.862L348.641 239.349L348.62 246.742L354.705 250.256L354.726 242.862Z" fill="white"/>
<path d="M354.756 232.404L348.671 228.891L348.65 236.284L354.735 239.798L354.756 232.404Z" fill="white"/>
<path d="M348.71 215.333L348.689 222.727L424.532 266.515L424.553 259.122L348.71 215.333Z" fill="#14B8A6"/>
<path d="M424.532 266.515L432.69 271.225L432.711 263.832L424.553 259.122L424.532 266.515ZM427.532 263.416L428.621 265.302L429.717 264.678L430.302 265.683L428.618 266.643L426.944 263.744L427.532 263.416Z" fill="#14B8A6"/>
<path d="M348.741 204.32L348.72 211.714L424.563 255.502L424.584 248.108L348.741 204.32Z" fill="#14B8A6"/>
<path d="M430.333 254.668L429.748 253.655L428.652 254.279L427.563 252.394L426.974 252.73L428.648 255.62L430.333 254.668Z" fill="white"/>
<path d="M424.563 255.502L432.721 260.212L432.742 252.819L424.584 248.109L424.563 255.502ZM427.563 252.394L428.652 254.279L429.748 253.655L430.333 254.668L428.648 255.62L426.974 252.73L427.563 252.394Z" fill="#14B8A6"/>
<path d="M383.173 252.052L382.588 251.038L381.492 251.671L380.404 249.777L379.815 250.113L381.489 253.012L383.173 252.052Z" fill="white"/>
<path d="M385.561 257.595L385.582 250.202L377.424 245.492L377.403 252.885L385.561 257.595ZM380.404 249.777L381.493 251.671L382.589 251.038L383.174 252.051L381.489 253.011L379.815 250.112L380.404 249.777Z" fill="#14B8A6"/>
<path d="M357.804 252.044L377.374 263.343L377.395 255.95L357.825 244.651L357.804 252.044Z" fill="#14B8A6"/>
<path d="M377.424 245.492L357.854 234.193L357.833 241.586L377.403 252.885L377.424 245.492Z" fill="#14B8A6"/>
<path d="M381.459 263.47L383.143 262.51L382.559 261.497L381.463 262.121L380.374 260.236L379.785 260.571L381.459 263.47Z" fill="white"/>
<path d="M377.374 263.343L385.532 268.053L385.553 260.66L377.395 255.95L377.374 263.343ZM380.374 260.236L381.463 262.121L382.559 261.497L383.144 262.51L381.459 263.47L379.786 260.571L380.374 260.236Z" fill="#14B8A6"/>
<path d="M424.464 290.531L432.622 295.241L432.643 287.848L424.485 283.138L424.464 290.531ZM426.875 287.758L427.464 287.422L428.553 289.308L429.649 288.684L430.234 289.697L428.549 290.657L426.875 287.758Z" fill="#14B8A6"/>
<path d="M424.42 305.949L432.578 310.659L432.599 303.266L424.441 298.556L424.42 305.949ZM427.42 302.85L428.509 304.736L429.605 304.112L430.19 305.117L428.505 306.077L426.831 303.178L427.42 302.85Z" fill="#14B8A6"/>
<path d="M424.39 316.407L432.548 321.117L432.569 313.724L424.411 309.014L424.39 316.407ZM427.391 313.3L428.48 315.194L429.576 314.561L430.161 315.574L428.476 316.534L426.802 313.635L427.391 313.3Z" fill="#14B8A6"/>
<path d="M404.841 297.715L404.82 305.109L424.39 316.407L424.411 309.014L404.841 297.715Z" fill="#14B8A6"/>
<path d="M404.871 287.257L404.85 294.65L424.42 305.949L424.441 298.556L404.871 287.257Z" fill="#14B8A6"/>
<path d="M404.914 271.838L404.893 279.232L424.464 290.531L424.485 283.137L404.914 271.838Z" fill="#14B8A6"/>
<path d="M404.944 261.38L404.923 268.773L424.493 280.072L424.514 272.679L404.944 261.38Z" fill="#14B8A6"/>
<path d="M430.263 279.239L429.678 278.226L428.582 278.859L427.494 276.965L426.905 277.3L428.578 280.199L430.263 279.239Z" fill="white"/>
<path d="M424.514 272.679L424.493 280.072L432.651 284.782L432.672 277.389L424.514 272.679ZM427.494 276.965L428.583 278.859L429.679 278.226L430.264 279.239L428.579 280.199L426.905 277.3L427.494 276.965Z" fill="#14B8A6"/>
<path d="M395.71 273.93L401.795 277.443L401.816 270.05L395.731 266.536L395.71 273.93Z" fill="white"/>
<path d="M401.846 259.591L395.761 256.078L395.74 263.472L401.825 266.985L401.846 259.591Z" fill="white"/>
<path d="M428.549 290.657L430.233 289.697L429.648 288.684L428.553 289.308L427.464 287.423L426.875 287.759L428.549 290.657Z" fill="white"/>
<path d="M357.76 267.463L377.33 278.762L377.351 271.368L357.781 260.07L357.76 267.463Z" fill="#14B8A6"/>
<path d="M377.33 278.762L385.488 283.472L385.509 276.078L377.351 271.368L377.33 278.762ZM380.33 275.663L381.419 277.549L382.515 276.925L383.1 277.93L381.415 278.89L379.741 275.991L380.33 275.663Z" fill="#14B8A6"/>
<path d="M381.415 278.888L383.1 277.928L382.515 276.924L381.419 277.548L380.33 275.663L379.741 275.99L381.415 278.888Z" fill="white"/>
<path d="M381.389 288.006L380.301 286.112L379.712 286.448L381.386 289.347L383.07 288.387L382.485 287.373L381.389 288.006Z" fill="white"/>
<path d="M377.3 289.22L385.458 293.93L385.479 286.537L377.321 281.827L377.3 289.22ZM380.301 286.112L381.39 288.006L382.486 287.373L383.071 288.386L381.386 289.346L379.712 286.447L380.301 286.112Z" fill="#14B8A6"/>
<path d="M365.222 296.972L365.243 289.579L359.158 286.066L359.137 293.459L365.222 296.972Z" fill="white"/>
<path d="M357.73 277.921L377.3 289.22L377.321 281.827L357.751 270.528L357.73 277.921Z" fill="#14B8A6"/>
<path d="M377.233 312.8L348.48 296.199L348.459 303.593L377.212 320.194L377.233 312.8Z" fill="#14B8A6"/>
<path d="M380.685 319.259L381.298 320.32L382.982 319.36L382.397 318.347L381.302 318.98L380.213 317.086L379.624 317.422L380.685 319.259Z" fill="white"/>
<path d="M377.233 312.8L377.212 320.193L385.37 324.903L385.391 317.51L377.233 312.8ZM380.213 317.086L381.302 318.98L382.398 318.347L382.983 319.36L381.298 320.32L380.685 319.259L379.624 317.421L380.213 317.086Z" fill="#14B8A6"/>
<path d="M424.323 339.988L395.57 323.387L395.549 330.78L424.302 347.381L424.323 339.988Z" fill="#14B8A6"/>
<path opacity="0.3" d="M348.71 215.333L348.689 222.727L424.532 266.515L424.553 259.122L348.71 215.333Z" fill="black"/>
<path opacity="0.3" d="M348.741 204.32L348.72 211.714L424.563 255.502L424.584 248.108L348.741 204.32Z" fill="black"/>
<path opacity="0.3" d="M357.804 252.044L377.374 263.343L377.395 255.95L357.825 244.651L357.804 252.044Z" fill="black"/>
<path opacity="0.3" d="M377.424 245.492L357.854 234.193L357.833 241.586L377.403 252.885L377.424 245.492Z" fill="black"/>
<path opacity="0.3" d="M404.841 297.715L404.82 305.109L424.39 316.407L424.411 309.014L404.841 297.715Z" fill="black"/>
<path opacity="0.3" d="M404.871 287.257L404.85 294.65L424.42 305.949L424.441 298.556L404.871 287.257Z" fill="black"/>
<path opacity="0.3" d="M404.914 271.838L404.893 279.232L424.464 290.531L424.485 283.137L404.914 271.838Z" fill="black"/>
<path opacity="0.3" d="M404.944 261.38L404.923 268.773L424.493 280.072L424.514 272.679L404.944 261.38Z" fill="black"/>
<path opacity="0.3" d="M357.76 267.463L377.33 278.762L377.351 271.368L357.781 260.07L357.76 267.463Z" fill="black"/>
<path opacity="0.3" d="M357.73 277.921L377.3 289.22L377.321 281.827L357.751 270.528L357.73 277.921Z" fill="black"/>
<path opacity="0.3" d="M377.233 312.8L348.48 296.199L348.459 303.593L377.212 320.194L377.233 312.8Z" fill="black"/>
<path opacity="0.3" d="M424.323 339.988L395.57 323.387L395.549 330.78L424.302 347.381L424.323 339.988Z" fill="black"/>
<path d="M424.323 339.988L424.302 347.381L432.46 352.091L432.481 344.698L424.323 339.988ZM427.303 344.273L427.7 344.964L428.391 346.167L429.487 345.534L430.072 346.547L428.387 347.507L426.713 344.608L427.303 344.273Z" fill="#14B8A6"/>
<path opacity="0.4" d="M424.532 266.515L432.69 271.225L432.711 263.832L424.553 259.122L424.532 266.515ZM427.532 263.416L428.621 265.302L429.717 264.678L430.302 265.683L428.618 266.643L426.944 263.744L427.532 263.416Z" fill="black"/>
<path opacity="0.4" d="M424.563 255.502L432.721 260.212L432.742 252.819L424.584 248.109L424.563 255.502ZM427.563 252.394L428.652 254.279L429.748 253.655L430.333 254.668L428.648 255.62L426.974 252.73L427.563 252.394Z" fill="black"/>
<path opacity="0.4" d="M385.561 257.595L385.582 250.202L377.424 245.492L377.403 252.885L385.561 257.595ZM380.404 249.777L381.493 251.671L382.589 251.038L383.174 252.051L381.489 253.011L379.815 250.112L380.404 249.777Z" fill="black"/>
<path opacity="0.4" d="M377.374 263.343L385.532 268.053L385.553 260.66L377.395 255.95L377.374 263.343ZM380.374 260.236L381.463 262.121L382.559 261.497L383.144 262.51L381.459 263.47L379.786 260.571L380.374 260.236Z" fill="black"/>
<path opacity="0.4" d="M424.464 290.531L432.622 295.241L432.643 287.848L424.485 283.138L424.464 290.531ZM426.875 287.758L427.464 287.422L428.553 289.308L429.649 288.684L430.234 289.697L428.549 290.657L426.875 287.758Z" fill="black"/>
<path opacity="0.4" d="M424.42 305.949L432.578 310.659L432.599 303.266L424.441 298.556L424.42 305.949ZM427.42 302.85L428.509 304.736L429.605 304.112L430.19 305.117L428.505 306.077L426.831 303.178L427.42 302.85Z" fill="black"/>
<path opacity="0.4" d="M424.39 316.407L432.548 321.117L432.569 313.724L424.411 309.014L424.39 316.407ZM427.391 313.3L428.48 315.194L429.576 314.561L430.161 315.574L428.476 316.534L426.802 313.635L427.391 313.3Z" fill="black"/>
<path opacity="0.4" d="M424.514 272.679L424.493 280.072L432.651 284.782L432.672 277.389L424.514 272.679ZM427.494 276.965L428.583 278.859L429.679 278.226L430.264 279.239L428.579 280.199L426.905 277.3L427.494 276.965Z" fill="black"/>
<path opacity="0.4" d="M377.33 278.762L385.488 283.472L385.509 276.078L377.351 271.368L377.33 278.762ZM380.33 275.663L381.419 277.549L382.515 276.925L383.1 277.93L381.415 278.89L379.741 275.991L380.33 275.663Z" fill="black"/>
<path opacity="0.4" d="M377.3 289.22L385.458 293.93L385.479 286.537L377.321 281.827L377.3 289.22ZM380.301 286.112L381.39 288.006L382.486 287.373L383.071 288.386L381.386 289.346L379.712 286.447L380.301 286.112Z" fill="black"/>
<path opacity="0.4" d="M377.233 312.8L377.212 320.193L385.37 324.903L385.391 317.51L377.233 312.8ZM380.213 317.086L381.302 318.98L382.398 318.347L382.983 319.36L381.298 320.32L380.685 319.259L379.624 317.421L380.213 317.086Z" fill="black"/>
<path opacity="0.4" d="M424.323 339.988L424.302 347.381L432.46 352.091L432.481 344.698L424.323 339.988ZM427.303 344.273L427.7 344.964L428.391 346.167L429.487 345.534L430.072 346.547L428.387 347.507L426.713 344.608L427.303 344.273Z" fill="black"/>
<path d="M430.072 346.548L429.487 345.534L428.391 346.167L427.7 344.965L427.303 344.273L426.714 344.609L428.388 347.508L430.072 346.548Z" fill="white"/>
<path d="M395.637 299.807L401.722 303.32L401.743 295.927L395.658 292.413L395.637 299.807Z" fill="white"/>
<path d="M395.667 289.349L401.752 292.862L401.772 285.468L395.688 281.955L395.667 289.349Z" fill="white"/>
<path d="M430.19 305.116L429.605 304.111L428.509 304.736L427.42 302.85L426.832 303.177L428.505 306.076L430.19 305.116Z" fill="white"/>
<path d="M430.16 315.574L429.575 314.561L428.479 315.194L427.391 313.3L426.802 313.635L428.475 316.534L430.16 315.574Z" fill="white"/>
<path d="M354.611 283.44L348.526 279.927L348.505 287.321L354.59 290.834L354.611 283.44Z" fill="white"/>
<path d="M383.076 307.28L389.161 310.793L389.182 303.4L383.097 299.887L383.076 307.28Z" fill="white"/>
<path d="M393.701 313.414L399.793 316.932L399.814 309.538L393.722 306.021L393.701 313.414Z" fill="white"/>
<path d="M415.81 318.774L415.789 326.167L421.874 329.68L421.895 322.287L415.81 318.774Z" fill="white"/>
<path d="M426.414 332.301L432.506 335.819L432.527 328.425L426.435 324.908L426.414 332.301Z" fill="white"/>
<path d="M426.793 233.441L426.791 234.397L432.779 237.854L432.782 236.898L426.793 233.441Z" fill="white"/>
<path d="M426.777 239.306L432.765 242.763L432.768 241.816L426.779 238.358L426.777 239.306Z" fill="white"/>
<path d="M426.786 236.036L432.774 239.493L432.777 238.537L426.789 235.08L426.786 236.036Z" fill="white"/>
<path d="M426.781 237.667L432.77 241.124L432.772 240.176L426.784 236.719L426.781 237.667Z" fill="white"/>
<path opacity="0.3" d="M440.63 230.463L353.947 180.417C353.262 180.022 352.642 179.986 352.193 180.245L345.709 184.893L345.71 184.894C346.158 184.643 346.772 184.68 347.45 185.072L434.133 235.118C434.896 235.559 435.569 236.355 436.021 237.243L442.834 233.329C442.431 232.157 441.602 231.024 440.63 230.463Z" fill="white"/>
<path opacity="0.2" d="M436.02 237.243C436.378 237.945 436.6 238.704 436.598 239.398L436.262 357.82C436.26 358.579 435.996 359.114 435.573 359.383L435.575 359.387L442.139 354.686L442.134 354.676C442.517 354.394 442.758 353.883 442.76 353.165L443.096 234.743C443.097 234.289 442.997 233.806 442.834 233.329L436.02 237.243Z" fill="white"/>
<path d="M190.46 80.29L215.919 134.827L171.328 146.909L145.862 92.367L190.46 80.29Z" fill="#14B8A6"/>
<path d="M190.971 126.143C191.091 126.664 191.133 127.123 191.089 127.517L183.677 129.522C183.32 129.234 182.971 128.86 182.636 128.404C182.294 127.944 182.01 127.459 181.768 126.95C182.805 126.662 183.008 125.842 182.361 124.458C182.098 123.887 181.714 123.23 181.23 122.491L180.639 121.632L174.515 123.296L174.777 124.244C175.025 125.176 175.237 125.824 175.415 126.198C175.77 126.958 176.189 127.478 176.673 127.757C177.12 128.015 177.624 128.069 178.183 127.919C178.425 128.428 178.602 128.949 178.722 129.462C178.842 129.983 178.877 130.438 178.84 130.836L172.745 132.492C172.381 132.2 172.032 131.826 171.697 131.37C171.355 130.91 171.071 130.425 170.829 129.908C171.337 129.766 171.696 129.406 171.89 128.82C172.092 128.238 172.073 127.455 171.847 126.487L166.62 104.469C165.72 104.294 164.712 104.353 163.603 104.657C163.027 103.429 162.759 102.33 162.812 101.383L170.302 99.35L186.75 122.309C187.355 123.168 188.004 123.805 188.682 124.205C189.36 124.596 189.946 124.729 190.439 124.595C190.681 125.113 190.858 125.634 190.971 126.143ZM173.554 119.775L178.476 118.444L171.556 108.313C170.994 107.496 170.445 106.826 169.903 106.283L173.554 119.775Z" fill="white"/>
<path d="M200.346 146.251L203.964 149.605L197.74 184.216L193.9 206.787L180.686 208.326L186.091 184.216L196.325 144.314L200.346 146.251Z" fill="#FFA8A7"/>
<path d="M195.101 204.021C185.991 200.617 180.03 205.401 180.03 205.401L178.539 244.061L194.798 234.757L195.101 204.021Z" fill="#14B8A6"/>
<path d="M195.101 204.021C185.991 200.617 180.03 205.401 180.03 205.401L178.539 244.061L194.798 234.757L195.101 204.021Z" fill="#263238"/>
<path opacity="0.1" d="M195.101 204.021C185.991 200.617 180.03 205.401 180.03 205.401L178.539 244.061L194.798 234.757L195.101 204.021Z" fill="white"/>
<path d="M203.215 92.865C201.718 92.001 200.498 92.696 200.493 94.423L200.013 149.977C200.008 151.704 201.22 153.803 202.717 154.667L269.586 193.274C271.083 194.138 272.303 193.443 272.308 191.716L272.788 136.162C272.793 134.435 271.581 132.336 270.084 131.472L203.215 92.865Z" fill="#14B8A6"/>
<path d="M224.375 121.149L206.208 135.454L206.169 149.428L266.592 184.314L266.632 170.339L255.117 147.468L244.777 155.495L248.432 166.854L243.126 156.768L224.375 121.149Z" fill="white"/>
<path d="M244.222 128.193C241.378 126.552 239.065 127.87 239.055 131.138C239.046 134.406 241.345 138.387 244.188 140.029C247.032 141.671 249.346 140.352 249.355 137.085C249.365 133.816 247.067 129.835 244.222 128.193Z" fill="white"/>
<path d="M242.772 225.9L257.127 221.115L266.58 185.416C266.801 184.372 266.708 183.285 266.313 182.294L265.319 179.804C264.795 178.492 264.548 177.086 264.594 175.674L264.772 170.216C264.801 169.318 265.538 168.605 266.436 168.605C267.242 168.605 267.932 169.182 268.075 169.975L268.929 174.712L270.931 177.014L272.552 170.516V162.056L276.827 168.223C277.925 169.817 278.363 171.774 278.048 173.684L276.337 184.049L271.739 224.178C271.061 230.098 267.152 235.152 261.592 237.298L246.509 243.118L242.772 225.9Z" fill="#FFA8A7"/>
<path d="M212.008 443.083C212.786 445.533 215.472 446.934 218.034 447.138C220.596 447.341 223.127 446.621 225.656 446.163C231.318 445.137 236.778 446.154 242.425 446.021C244.278 445.978 246.147 445.892 247.94 445.422C249.733 444.951 251.463 444.063 252.655 442.643C253.359 441.805 253.841 440.763 254.012 439.687C254.289 441.304 253.719 443.032 252.655 444.299C251.463 445.719 249.733 446.607 247.94 447.078C246.147 447.549 244.278 447.634 242.425 447.677C236.778 447.81 231.318 446.793 225.656 447.819C223.127 448.277 220.596 448.997 218.034 448.794C215.472 448.59 212.786 447.188 212.008 444.739C211.74 443.896 211.723 443.014 211.811 442.129C211.85 442.451 211.909 442.77 212.008 443.083Z" fill="#263238"/>
<path d="M212.154 438.391C212.501 436.676 212.848 434.961 213.196 433.246C213.379 432.339 213.572 431.409 214.068 430.628C214.564 429.846 215.437 429.234 216.358 429.319C219.459 428.906 223.819 427.784 226.396 429.558C230.429 432.334 235.37 433.769 240.264 433.585C242.826 433.489 245.391 432.964 247.935 433.276C250.48 433.588 253.128 435.005 253.883 437.455C254.107 438.18 254.133 438.943 254.015 439.689C253.844 440.765 253.361 441.807 252.658 442.645C251.466 444.065 249.736 444.953 247.943 445.424C246.15 445.895 244.281 445.98 242.428 446.023C236.781 446.156 231.321 445.139 225.659 446.165C223.13 446.623 220.599 447.343 218.037 447.14C215.475 446.936 212.789 445.535 212.011 443.085C211.912 442.772 211.853 442.453 211.814 442.131C211.665 440.9 211.905 439.621 212.154 438.391Z" fill="#37474F"/>
<path d="M227.146 424.169L227.367 430.871C227.414 432.295 226.328 433.517 224.906 433.611C222.604 433.763 220.362 433.754 218.151 433.546C216.269 433.369 214.798 431.843 214.697 429.956L214.431 425.007L227.146 424.169Z" fill="#FFA8A7"/>
<path d="M183.387 420.603C183.457 421.599 183.695 422.58 184.284 423.371C185.024 424.364 186.229 424.923 187.447 425.151C190.388 425.702 193.596 424.381 195.297 421.92C196.14 420.7 196.619 419.264 197.417 418.014C198.524 416.28 200.185 414.986 201.818 413.734C203.451 412.482 205.12 411.202 206.253 409.485C207.349 407.823 207.851 405.646 207.101 403.815C207.257 404.039 207.4 404.275 207.516 404.528C208.398 406.452 207.876 408.795 206.72 410.565C205.565 412.336 203.861 413.655 202.195 414.945C200.529 416.235 198.833 417.569 197.704 419.357C196.89 420.645 196.401 422.126 195.541 423.383C193.805 425.921 190.532 427.282 187.531 426.714C186.289 426.479 185.058 425.903 184.303 424.878C183.507 423.798 183.339 422.374 183.365 421.028C183.368 420.887 183.381 420.746 183.387 420.603Z" fill="#263238"/>
<path d="M185.42 412.19C187.457 408.619 191.659 406.021 194.9 403.492C196.739 402.057 198.857 400.832 201.182 400.639C203.507 400.446 206.053 401.512 207.034 403.629C207.062 403.69 207.077 403.754 207.102 403.815C207.853 405.646 207.35 407.823 206.254 409.485C205.122 411.203 203.452 412.482 201.819 413.734C200.186 414.986 198.525 416.28 197.418 418.014C196.62 419.264 196.141 420.7 195.298 421.92C193.597 424.382 190.389 425.703 187.448 425.151C186.23 424.923 185.025 424.364 184.285 423.371C183.696 422.58 183.458 421.598 183.388 420.603C183.365 420.28 183.36 419.956 183.366 419.636C183.418 417.035 184.131 414.45 185.42 412.19Z" fill="#37474F"/>
<path d="M194.255 409.094V415.185C188.697 417.507 184.776 414.766 184.776 414.766L184.205 409.284L194.255 409.094Z" fill="#FFA8A7"/>
<path d="M182.606 298.582C180.779 304.064 183.025 330.102 184.091 355.075C180.132 364.516 181.198 391.316 183.482 410.35C183.482 410.35 191.438 412.952 198.595 410.516L203.583 357.816L204.83 328.123C204.83 328.123 207.085 354.466 209.674 371.368C207.238 384.311 206.269 386.126 210.105 426.843C210.105 426.843 220.028 430.145 227.337 426.56C230.738 370.625 229.488 319.653 228.843 301.323L182.606 298.582Z" fill="#14B8A6"/>
<path opacity="0.3" d="M182.606 298.582C180.779 304.064 183.025 330.102 184.091 355.075C180.132 364.516 181.198 391.316 183.482 410.35C183.482 410.35 191.438 412.952 198.595 410.516L203.583 357.816L204.83 328.123C204.83 328.123 207.085 354.466 209.674 371.368C207.238 384.311 206.269 386.126 210.105 426.843C210.105 426.843 220.028 430.145 227.337 426.56C230.738 370.625 229.488 319.653 228.843 301.323L182.606 298.582Z" fill="black"/>
<path opacity="0.3" d="M204.069 346.205L205.086 321.988C198.827 321.988 193.019 317.31 188.603 312.875C192.846 320.433 201.069 323.783 201.069 323.783L204.069 346.205Z" fill="black"/>
<path d="M229.798 302.807C201.873 314.507 183.777 303.938 181.32 298.439C182.607 279.134 178.044 256.552 178.395 246.958C178.746 237.364 179.923 226.556 194.798 228.723L210.618 230.266L218.644 232.216L228.27 252.208L229.798 302.807Z" fill="#263238"/>
<path d="M194.798 221.139C193.853 221.265 192.356 220.793 191.708 220.093C191.06 219.394 190.777 218.373 190.975 217.439C190.039 217.269 189.209 216.596 188.849 215.715C188.49 214.834 188.793 213.601 189.344 212.825C187.989 212.483 186.804 211.516 186.198 210.256C185.592 208.996 185.48 207.366 186.058 206.093C184.568 205.713 183.32 204.5 182.897 203.022C182.474 201.543 182.73 199.623 183.795 198.513C182.494 196.82 182.211 194.402 183.086 192.454C183.961 190.507 186.159 189.095 188.288 188.943C187.96 186.892 188.76 184.696 190.33 183.335C191.9 181.975 194.099 181.593 196.082 182.21C196.762 180.476 198.412 179.16 200.254 178.881C202.096 178.603 204.13 179.174 205.292 180.63C206.198 179.588 207.652 179.052 209.018 179.256C210.383 179.46 211.828 180.216 212.39 181.477C214.146 180.693 216.299 180.873 217.9 181.939C219.501 183.005 220.423 184.965 220.376 186.888C221.792 187.271 222.842 188.717 222.766 190.182C222.69 191.647 221.46 193.123 220.012 193.357C218.641 200.861 216.082 208.306 212.593 215.09C211.025 218.139 209.103 221.233 206.062 222.816C202.773 224.531 197.613 223.551 194.798 221.139Z" fill="#263238"/>
<path d="M194.798 221.139C193.853 221.265 192.356 220.793 191.708 220.093C191.06 219.394 190.777 218.373 190.975 217.439C190.039 217.269 189.209 216.596 188.849 215.715C188.49 214.834 188.793 213.601 189.344 212.825C187.989 212.483 186.804 211.516 186.198 210.256C185.592 208.996 185.48 207.366 186.058 206.093C184.568 205.713 183.32 204.5 182.897 203.022C182.474 201.543 182.73 199.623 183.795 198.513C182.494 196.82 182.211 194.402 183.086 192.454C183.961 190.507 186.159 189.095 188.288 188.943C187.96 186.892 188.76 184.696 190.33 183.335C191.9 181.975 194.099 181.593 196.082 182.21C196.762 180.476 198.412 179.16 200.254 178.881C202.096 178.603 204.13 179.174 205.292 180.63C206.198 179.588 207.652 179.052 209.018 179.256C210.383 179.46 211.828 180.216 212.39 181.477C214.146 180.693 216.299 180.873 217.9 181.939C219.501 183.005 220.423 184.965 220.376 186.888C221.792 187.271 222.842 188.717 222.766 190.182C222.69 191.647 221.46 193.123 220.012 193.357C218.641 200.861 216.082 208.306 212.593 215.09C211.025 218.139 209.103 221.233 206.062 222.816C202.773 224.531 197.613 223.551 194.798 221.139Z" fill="#263238"/>
<path d="M221.14 203.277L224.416 208.971L220.828 210.297L221.14 203.277Z" fill="#F28F8F"/>
<path d="M221.14 203.277L224.416 208.971L220.828 210.297L221.14 203.277Z" fill="#803837"/>
<path d="M220.011 193.36C222.182 201.21 222.513 209.566 220.951 217.561C220.686 218.923 220.339 220.329 219.446 221.391C218.437 222.591 216.847 223.181 215.285 223.306C213.722 223.431 212.159 223.143 210.617 222.856V230.266C204.993 231.592 199.206 232.117 194.797 228.723V221.14C197.958 222.068 201.398 222.454 204.617 221.754C208.503 219.658 209.282 212.56 208.736 210.688C208.162 211.632 206.774 212.001 205.698 211.756C204.621 211.511 203.729 210.709 203.176 209.753C202.623 208.797 202.375 207.694 202.235 206.599C202.064 205.264 202.07 203.815 202.811 202.692C203.722 201.312 205.613 200.784 207.211 201.208C208.809 201.633 210.103 202.865 210.915 204.305C211.172 204.76 211.386 205.235 211.567 205.723C211.896 206.611 213.185 206.448 213.272 205.506C213.467 203.389 213.092 201.216 212.157 199.306C213.407 199.324 214.583 198.361 215.332 197.361C216.081 196.36 216.316 194.995 215.945 193.801C217.825 194.014 220.011 193.36 220.011 193.36Z" fill="#FFA8A7"/>
<path d="M200.034 147.542L202.932 140.054L204.239 134.171C204.406 133.418 203.977 132.661 203.246 132.416C202.463 132.155 201.615 132.574 201.347 133.355L200.25 136.549V127.54L196.493 134.266C195.927 135.279 195.676 136.438 195.771 137.594L195.007 149.456L200.034 147.542Z" fill="#FFA8A7"/>
<path d="M218.607 232.198C227.506 229.253 243.35 224.47 243.35 224.47C250.462 231.642 249.861 243.217 249.861 243.217L228.269 252.207C207.668 258.734 204.665 236.811 218.607 232.198Z" fill="#263238"/>
<path opacity="0.1" d="M218.607 232.198C227.506 229.253 243.35 224.47 243.35 224.47C250.462 231.642 249.861 243.217 249.861 243.217L228.269 252.207C207.668 258.734 204.665 236.811 218.607 232.198Z" fill="white"/>
</svg>
