<svg width="500" height="500" viewBox="0 0 500 500" fill="none" xmlns="http://www.w3.org/2000/svg">
<path d="M250.314 489.73C383.036 489.73 490.628 434.05 490.628 365.365C490.628 296.68 383.036 241 250.314 241C117.592 241 10 296.68 10 365.365C10 434.05 117.592 489.73 250.314 489.73Z" fill="#F5F7F8"/>
<path d="M106.077 45.134L96.899 50.433C96.945 50.023 96.976 49.616 96.976 49.218V46.559C96.976 41.828 93.654 39.91 89.556 42.275C87.897 43.233 86.37 44.751 85.134 46.527C84.463 40.578 79.795 38.361 74.126 41.634C67.996 45.173 63.026 53.781 63.026 60.86V64.838C63.026 66.671 63.365 68.216 63.966 69.446L56.343 73.847C54.07 75.159 52.227 78.351 52.227 80.975C52.227 83.6 54.07 84.663 56.343 83.351L106.076 54.637C108.349 53.325 110.192 50.133 110.192 47.509C110.192 44.886 108.35 43.822 106.077 45.134Z" fill="#EBEBEB"/>
<path d="M150.24 65.017L143.314 69.016C143.348 68.707 143.372 68.4 143.372 68.099V66.092C143.372 62.521 140.865 61.074 137.773 62.859C136.521 63.582 135.368 64.728 134.436 66.068C133.929 61.578 130.407 59.905 126.128 62.376C121.502 65.047 117.751 71.543 117.751 76.886V79.888C117.751 81.272 118.007 82.437 118.46 83.366L112.707 86.688C110.992 87.679 109.601 90.087 109.601 92.068C109.601 94.049 110.992 94.852 112.707 93.861L150.241 72.191C151.956 71.201 153.347 68.792 153.347 66.811C153.346 64.829 151.956 64.027 150.24 65.017Z" fill="#EBEBEB"/>
<path d="M363.257 383.55C344.01 394.662 344.01 412.679 363.258 423.793C382.506 434.905 413.713 434.905 432.96 423.793C452.208 412.68 452.208 394.663 432.959 383.55C413.711 372.437 382.504 372.437 363.257 383.55Z" fill="#E0E0E0"/>
<path d="M79.49 431.39L35.745 406.134C33.279 404.71 33.279 402.401 35.745 400.977L280.51 259.833C282.976 258.409 286.975 258.409 289.441 259.833L333.187 285.088C335.653 286.512 335.653 288.821 333.187 290.244L88.421 431.39C85.955 432.814 81.956 432.814 79.49 431.39Z" fill="#E0E0E0"/>
<path d="M314.393 341.39L308.95 338.247C296.6 331.116 277.104 330.767 265.489 337.473L245.178 349.2C244.46 349.614 244.215 350.531 244.629 351.249C245.043 351.968 245.962 352.213 246.678 351.798L266.989 340.071C277.773 333.845 295.926 334.191 307.45 340.845L312.893 343.988C318.193 347.049 321.112 351.026 321.112 355.19C321.112 359.353 318.193 363.331 312.893 366.39L238.396 409.402C226.872 416.056 208.119 416.054 196.594 409.402L174.903 396.878C162.551 389.747 142.453 389.747 130.101 396.878L124.658 400.021C118.128 403.791 114.532 408.806 114.532 414.143C114.532 419.063 117.652 423.574 123.317 426.844L142.744 438.06L134.761 442.767C131.114 444.918 131.13 448.41 134.797 450.527L149.388 458.951C149.984 459.295 149.982 459.855 149.385 460.196L148.167 460.891C147.57 461.232 147.569 461.792 148.164 462.136L150.061 463.231C150.656 463.575 151.631 463.576 152.227 463.233L158.848 459.427C159.444 459.084 160.419 459.085 161.014 459.429L173.066 466.387C173.662 466.731 174.636 466.731 175.231 466.387L177.128 465.292C177.723 464.948 177.723 464.386 177.128 464.042L165.076 457.084C164.48 456.74 164.48 456.178 165.076 455.834L169.697 453.166C170.293 452.822 171.267 452.822 171.862 453.166L183.914 460.124C184.509 460.468 185.484 460.468 186.079 460.124L187.976 459.029C188.571 458.685 188.571 458.123 187.976 457.779L175.923 450.82C175.327 450.476 175.327 449.914 175.923 449.57L181.882 446.13C182.478 445.786 182.478 445.224 181.882 444.88L179.985 443.785C179.389 443.441 178.415 443.441 177.82 443.785L175.923 444.88C175.328 445.224 174.353 445.224 173.758 444.88L155.226 434.18C153.585 433.232 150.906 433.245 149.274 434.207L145.584 436.383C145.465 436.22 145.312 436.078 145.126 435.971L124.816 424.244C120.118 421.531 117.531 417.943 117.531 414.14C117.531 409.981 120.675 405.781 126.157 402.616L131.6 399.472C143.123 392.82 161.876 392.82 173.402 399.472L195.093 411.996C207.445 419.127 227.543 419.127 239.895 411.996L314.392 368.984C320.659 365.367 324.111 360.466 324.111 355.186C324.112 349.909 320.661 345.008 314.393 341.39Z" fill="#E0E0E0"/>
<path d="M416.427 402.363C416.043 383.074 423.606 365.638 430.086 357.062C436.565 348.487 447.439 340.104 455 342.463C462.042 344.66 461.535 353.834 453.235 360.129C444.935 366.425 432.417 374.39 428.98 384.976L420.598 404.464L416.427 402.363Z" fill="#14B8A6"/>
<path opacity="0.15" d="M416.427 402.363C416.043 383.074 423.606 365.638 430.086 357.062C436.565 348.487 447.439 340.104 455 342.463C462.042 344.66 461.535 353.834 453.235 360.129C444.935 366.425 432.417 374.39 428.98 384.976L420.598 404.464L416.427 402.363Z" fill="black"/>
<path d="M418.729 400.516C418.934 400.494 419.108 400.338 419.144 400.125C420.94 389.44 424.52 377.104 430.601 367.404C437.144 356.966 446.653 350.549 452.135 348.344C452.377 348.247 452.494 347.971 452.397 347.729C452.301 347.488 452.03 347.365 451.782 347.467C446.145 349.734 436.409 356.383 429.709 367.096C423.6 376.864 420.017 389.228 418.212 399.968C418.168 400.225 418.342 400.468 418.599 400.512C418.644 400.519 418.687 400.52 418.729 400.516Z" fill="white"/>
<path d="M423.404 406.55C424.344 402.889 428.619 396.772 435.662 391.624C443.454 385.929 453.434 383.136 455.635 378.809C458.279 373.61 453.829 368.888 445.7 370.121C437.571 371.354 422.341 383.075 419.207 404.11L423.404 406.55Z" fill="#14B8A6"/>
<path d="M421.722 402.78C421.901 402.761 422.06 402.64 422.12 402.457C428.373 383.37 442.614 376.344 449.271 375.295C449.529 375.255 449.705 375.012 449.664 374.755C449.624 374.496 449.392 374.32 449.124 374.362C441.763 375.521 427.604 382.682 421.222 402.164C421.141 402.411 421.277 402.679 421.524 402.76C421.59 402.781 421.657 402.787 421.722 402.78Z" fill="white"/>
<path d="M245.928 345.833C245.928 345.833 255.021 340.583 266.239 334.107C277.456 327.631 296.243 327.978 308.2 334.881L313.643 338.024C325.6 344.928 325.6 356.12 313.643 363.024L239.145 406.035C227.188 412.939 207.801 412.938 195.844 406.035L174.153 393.511C162.196 386.607 142.809 386.607 130.852 393.511L125.408 396.654C113.451 403.558 112.851 414.404 124.068 420.88L144.378 432.606" stroke="#37474F" stroke-width="3" stroke-miterlimit="10" stroke-linecap="round" stroke-linejoin="round"/>
<path d="M131.764 437.36V439.086C131.764 441.847 133.703 445.205 136.094 446.586L152.076 455.813L168.322 446.431L168.326 432.362L152.551 425.076C150.044 423.918 146.073 424.099 143.682 425.479L136.094 429.86C133.702 431.241 131.764 434.598 131.764 437.36Z" fill="#37474F"/>
<path d="M152.551 425.076C150.044 423.918 146.073 424.099 143.682 425.479L136.094 429.86C133.703 431.241 133.796 433.299 136.303 434.457L152.074 441.741L168.326 432.362L152.551 425.076Z" fill="#455A64"/>
<path opacity="0.1" d="M150.541 438.355C149.345 439.045 148.376 440.724 148.376 442.105V453.676L152.077 455.812L168.323 446.43L168.327 432.361L164.213 430.461L150.541 438.355Z" fill="black"/>
<path d="M169.707 429.94C169.318 429.716 168.782 429.748 168.187 430.091L152.207 439.317C151.011 440.007 150.042 441.686 150.042 443.067V456.829C150.042 457.52 150.286 458.003 150.679 458.226C151.044 458.433 152.35 459.186 152.711 459.399C153.101 459.629 153.64 459.599 154.24 459.253L170.22 450.027C171.416 449.337 172.385 447.658 172.385 446.277V432.515C172.385 431.828 172.145 431.34 171.756 431.115C171.389 430.904 170.073 430.151 169.707 429.94Z" fill="#37474F"/>
<path d="M154.239 440.491L170.219 431.265C171.415 430.575 172.384 431.134 172.384 432.515V446.277C172.384 447.658 171.415 449.337 170.219 450.027L154.239 459.253C153.043 459.943 152.074 459.384 152.074 458.003V444.241C152.074 442.86 153.043 441.181 154.239 440.491Z" fill="#455A64"/>
<path d="M170.791 450.887L157.574 443.256L156.137 444.087L156.136 453.468L169.353 461.099C170.191 461.583 170.952 461.623 171.503 461.302C171.747 461.16 172.699 460.61 172.942 460.47C173.487 460.157 173.821 459.484 173.822 458.518L173.823 456.137C173.822 454.203 172.465 451.853 170.791 450.887ZM168.362 453.397C169.484 454.044 170.393 455.62 170.393 456.915C170.393 457.123 170.362 457.303 170.318 457.47C170.151 457.425 169.979 457.362 169.799 457.257C168.677 456.609 167.768 455.034 167.768 453.739C167.768 453.531 167.798 453.341 167.842 453.174C168.008 453.219 168.181 453.292 168.362 453.397Z" fill="#14B8A6"/>
<path opacity="0.85" d="M170.791 450.886L157.571 443.256L156.141 444.086L169.351 451.716C171.031 452.686 172.381 455.036 172.381 456.966V459.346C172.381 460.346 172.021 461.046 171.431 461.346C171.451 461.336 171.481 461.316 171.501 461.306C171.751 461.156 172.701 460.606 172.941 460.466C173.491 460.156 173.821 459.486 173.821 458.516V456.136C173.821 454.206 172.461 451.856 170.791 450.886Z" fill="white"/>
<path d="M173.821 456.136V458.516C173.821 459.486 173.491 460.156 172.941 460.466C172.701 460.606 171.751 461.156 171.501 461.306C171.481 461.316 171.461 461.326 171.441 461.336C172.021 461.036 172.381 460.346 172.381 459.346V456.966C172.381 455.996 172.041 454.936 171.491 453.976L172.931 453.146C173.481 454.096 173.821 455.166 173.821 456.136Z" fill="#14B8A6"/>
<path opacity="0.6" d="M173.821 456.136V458.516C173.821 459.486 173.491 460.156 172.941 460.466C172.701 460.606 171.751 461.156 171.501 461.306C171.481 461.316 171.461 461.326 171.441 461.336C172.021 461.036 172.381 460.346 172.381 459.346V456.966C172.381 455.996 172.041 454.936 171.491 453.976L172.931 453.146C173.481 454.096 173.821 455.166 173.821 456.136Z" fill="white"/>
<path opacity="0.05" d="M173.821 456.136V458.516C173.821 459.486 173.491 460.156 172.941 460.466C172.701 460.606 171.751 461.156 171.501 461.306C171.481 461.316 171.461 461.326 171.441 461.336C172.021 461.036 172.381 460.346 172.381 459.346V456.966C172.381 455.996 172.041 454.936 171.491 453.976L172.931 453.146C173.481 454.096 173.821 455.166 173.821 456.136Z" fill="black"/>
<path opacity="0.6" d="M167.771 453.736C167.771 453.526 167.802 453.334 167.842 453.174C166.974 452.932 166.331 453.479 166.331 454.566C166.331 455.866 167.241 457.436 168.361 458.086C169.301 458.636 170.101 458.346 170.321 457.466C170.151 457.426 169.981 457.366 169.801 457.256C168.681 456.606 167.771 455.036 167.771 453.736Z" fill="white"/>
<path opacity="0.1" d="M167.771 453.736C167.771 453.526 167.802 453.334 167.842 453.174C166.974 452.932 166.331 453.479 166.331 454.566C166.331 455.866 167.241 457.436 168.361 458.086C169.301 458.636 170.101 458.346 170.321 457.466C170.151 457.426 169.981 457.366 169.801 457.256C168.681 456.606 167.771 455.036 167.771 453.736Z" fill="black"/>
<path opacity="0.7" d="M169.354 451.717L156.137 444.086L156.136 453.467L169.353 461.098C171.027 462.064 172.384 461.281 172.384 459.348L172.385 456.967C172.385 455.034 171.028 452.684 169.354 451.717ZM168.362 458.087C167.24 457.439 166.331 455.864 166.331 454.569C166.331 453.274 167.24 452.749 168.362 453.396C169.484 454.043 170.393 455.619 170.393 456.914C170.393 458.21 169.483 458.735 168.362 458.087Z" fill="white"/>
<path d="M181.542 444.681L168.325 437.05L166.888 437.881L166.887 447.262L180.104 454.893C180.942 455.377 181.703 455.417 182.254 455.096C182.498 454.954 183.45 454.404 183.693 454.264C184.238 453.951 184.572 453.278 184.573 452.312V449.931C184.573 447.998 183.216 445.647 181.542 444.681ZM179.113 447.191C180.235 447.839 181.144 449.414 181.144 450.709C181.144 450.917 181.113 451.097 181.069 451.264C180.902 451.219 180.73 451.156 180.55 451.051C179.428 450.403 178.519 448.828 178.519 447.533C178.519 447.325 178.549 447.135 178.593 446.968C178.76 447.013 178.933 447.086 179.113 447.191Z" fill="#14B8A6"/>
<path opacity="0.85" d="M181.542 444.68L168.322 437.05L166.892 437.88L180.102 445.51C181.782 446.48 183.132 448.83 183.132 450.76V453.14C183.132 454.14 182.772 454.84 182.182 455.14C182.202 455.13 182.232 455.11 182.252 455.1C182.502 454.95 183.452 454.4 183.692 454.26C184.242 453.95 184.572 453.28 184.572 452.31V449.93C184.572 448 183.212 445.65 181.542 444.68Z" fill="white"/>
<path d="M184.572 449.93V452.31C184.572 453.28 184.242 453.95 183.692 454.26C183.452 454.4 182.502 454.95 182.252 455.1C182.232 455.11 182.212 455.12 182.192 455.13C182.772 454.83 183.132 454.14 183.132 453.14V450.76C183.132 449.79 182.792 448.73 182.242 447.77L183.682 446.94C184.232 447.89 184.572 448.96 184.572 449.93Z" fill="#14B8A6"/>
<path opacity="0.6" d="M184.572 449.93V452.31C184.572 453.28 184.242 453.95 183.692 454.26C183.452 454.4 182.502 454.95 182.252 455.1C182.232 455.11 182.212 455.12 182.192 455.13C182.772 454.83 183.132 454.14 183.132 453.14V450.76C183.132 449.79 182.792 448.73 182.242 447.77L183.682 446.94C184.232 447.89 184.572 448.96 184.572 449.93Z" fill="white"/>
<path opacity="0.05" d="M184.572 449.93V452.31C184.572 453.28 184.242 453.95 183.692 454.26C183.452 454.4 182.502 454.95 182.252 455.1C182.232 455.11 182.212 455.12 182.192 455.13C182.772 454.83 183.132 454.14 183.132 453.14V450.76C183.132 449.79 182.792 448.73 182.242 447.77L183.682 446.94C184.232 447.89 184.572 448.96 184.572 449.93Z" fill="black"/>
<path opacity="0.6" d="M178.522 447.53C178.522 447.32 178.553 447.128 178.593 446.968C177.725 446.726 177.082 447.273 177.082 448.36C177.082 449.66 177.992 451.23 179.112 451.88C180.052 452.43 180.852 452.14 181.072 451.26C180.902 451.22 180.732 451.16 180.552 451.05C179.432 450.4 178.522 448.83 178.522 447.53Z" fill="white"/>
<path opacity="0.1" d="M178.522 447.53C178.522 447.32 178.553 447.128 178.593 446.968C177.725 446.726 177.082 447.273 177.082 448.36C177.082 449.66 177.992 451.23 179.112 451.88C180.052 452.43 180.852 452.14 181.072 451.26C180.902 451.22 180.732 451.16 180.552 451.05C179.432 450.4 178.522 448.83 178.522 447.53Z" fill="black"/>
<path opacity="0.7" d="M180.105 445.511L166.888 437.88L166.887 447.261L180.104 454.892C181.778 455.859 183.135 455.075 183.135 453.142V450.761C183.136 448.828 181.779 446.478 180.105 445.511ZM179.113 451.881C177.991 451.233 177.082 449.658 177.082 448.363C177.082 447.068 177.991 446.543 179.113 447.19C180.235 447.838 181.144 449.413 181.144 450.708C181.144 452.004 180.235 452.529 179.113 451.881Z" fill="white"/>
<path d="M227.049 392.138L264.655 370.394C268.531 368.156 270.469 365.223 270.47 362.29C270.47 359.356 270.486 357.059 270.486 357.059L231.468 335.058C229.401 333.864 227.725 330.961 227.725 328.574V282.209L162.041 320.165L162.038 366.53C162.038 368.917 163.714 371.82 165.781 373.014L198.972 392.139C206.726 396.614 219.296 396.613 227.049 392.138Z" fill="#14B8A6"/>
<g opacity="0.6">
<path d="M227.049 392.138L264.655 370.394C268.531 368.156 270.469 365.223 270.47 362.29C270.47 359.356 270.486 357.059 270.486 357.059L231.468 335.058C229.401 333.864 227.725 330.961 227.725 328.574V282.209L162.041 320.165L162.038 366.53C162.038 368.917 163.714 371.82 165.781 373.014L198.972 392.139C206.726 396.614 219.296 396.613 227.049 392.138Z" fill="black"/>
</g>
<path opacity="0.3" d="M177.809 374.739V379.947L165.771 373.009C163.718 371.82 162.032 368.924 162.032 366.525V320.165L174.546 312.946C174.805 316.123 175.086 319.408 175.345 322.607L166.57 327.686V363.909C166.57 366.308 168.234 369.204 170.309 370.393L177.809 374.739Z" fill="black"/>
<path d="M166.569 363.919C166.569 366.306 168.245 369.209 170.312 370.403L198.967 386.909C206.72 391.385 219.291 391.387 227.045 386.912L264.67 365.17C272.424 360.696 272.425 353.44 264.672 348.963L235.999 332.445C233.932 331.251 232.255 328.349 232.255 325.961L232.254 289.733L166.568 327.688V363.919H166.569Z" fill="#14B8A6"/>
<path opacity="0.3" d="M166.569 363.919C166.569 366.306 168.245 369.209 170.312 370.403L198.967 386.909C206.72 391.385 219.291 391.387 227.045 386.912L264.67 365.17C272.424 360.696 272.425 353.44 264.672 348.963L235.999 332.445C233.932 331.251 232.255 328.349 232.255 325.961L232.254 289.733L166.568 327.688V363.919H166.569Z" fill="black"/>
<path opacity="0.5" d="M243.623 336.853V336.848L235.998 332.446C233.93 331.252 232.254 328.349 232.254 325.962V289.734L166.568 327.689V363.919C166.568 366.306 168.244 369.209 170.312 370.403L177.805 374.729L243.623 336.853Z" fill="black"/>
<path d="M270.478 357.062C270.478 357.062 270.478 359.353 270.478 362.292C270.478 365.231 268.533 368.149 264.664 370.397L227.052 392.129C223.335 394.29 218.515 395.371 213.652 395.457V390.248C218.515 390.183 223.335 389.059 227.052 386.92L264.664 365.167C268.533 362.941 270.478 360.002 270.478 357.062Z" fill="#14B8A6"/>
<path opacity="0.5" d="M270.478 357.062C270.478 357.062 270.478 359.353 270.478 362.292C270.478 365.231 268.533 368.149 264.664 370.397L227.052 392.129C223.335 394.29 218.515 395.371 213.652 395.457V390.248C218.515 390.183 223.335 389.059 227.052 386.92L264.664 365.167C268.533 362.941 270.478 360.002 270.478 357.062Z" fill="black"/>
<path d="M61.103 408.949C63.527 410.348 67.588 410.273 70.172 408.781C102.465 390.137 291.908 280.765 324.195 262.124C326.779 260.632 328.873 257.004 328.873 258.02V26.717C328.873 19.733 326.908 16.179 324.484 14.78C322.06 13.381 318 13.455 315.415 14.948L61.396 161.605C58.812 163.097 56.717 166.726 56.717 169.71L56.714 401.012C56.714 403.996 58.679 407.55 61.103 408.949Z" fill="#14B8A6"/>
<path d="M70.174 408.776L324.197 262.119C326.781 260.627 328.876 256.998 328.876 258.014V26.711C328.876 19.727 326.781 18.518 324.197 20.009L70.177 166.667C67.593 168.159 65.498 171.788 65.498 174.772L65.495 406.074C65.494 409.059 67.589 410.268 70.174 408.776Z" fill="#14B8A6"/>
<path opacity="0.5" d="M70.174 408.776L324.197 262.119C326.781 260.627 328.876 256.998 328.876 258.014V26.711C328.876 19.727 326.781 18.518 324.197 20.009L70.177 166.667C67.593 168.159 65.498 171.788 65.498 174.772L65.495 406.074C65.494 409.059 67.589 410.268 70.174 408.776Z" fill="black"/>
<path d="M69.485 414.118C66.892 415.263 63.304 415.22 61.099 413.945C58.678 412.54 56.711 408.995 56.711 405.991V391.28L65.486 396.359V411.07C65.487 413.793 67.216 415.025 69.485 414.118Z" fill="#14B8A6"/>
<path opacity="0.5" d="M69.485 414.118C66.892 415.263 63.304 415.22 61.099 413.945C58.678 412.54 56.711 408.995 56.711 405.991V391.28L65.486 396.359V411.07C65.487 413.793 67.216 415.025 69.485 414.118Z" fill="black"/>
<path d="M65.487 396.359L65.495 411.063C65.495 414.047 67.59 415.257 70.174 413.765L324.197 267.108C326.781 265.616 328.876 261.987 328.876 259.003V244.259L65.487 396.359Z" fill="#14B8A6"/>
<path opacity="0.3" d="M65.495 396.32V411.063C65.495 414.047 67.59 415.257 70.174 413.765L324.197 267.108C326.781 265.616 328.876 261.987 328.876 259.003V244.259L65.495 396.32Z" fill="black"/>
<path d="M74.271 377.884L74.273 177.686C74.273 175.895 75.53 173.718 77.08 172.823L317.283 34.142C318.834 33.247 320.091 33.973 320.091 35.763L320.099 235.965C320.099 237.756 318.842 239.933 317.292 240.828L77.079 379.505C75.529 380.401 74.271 379.675 74.271 377.884Z" fill="#14B8A6"/>
<path d="M74.271 377.884L74.273 177.686C74.273 175.895 75.53 173.718 77.08 172.823L317.283 34.142C318.834 33.247 320.091 33.973 320.091 35.763L320.099 235.965C320.099 237.756 318.842 239.933 317.292 240.828L77.079 379.505C75.529 380.401 74.271 379.675 74.271 377.884Z" fill="#263238"/>
<path opacity="0.7" d="M66.87 170.143C66.027 171.613 65.509 173.277 65.487 174.768V396.359L56.712 391.28L56.717 169.71C56.717 168.219 57.252 166.555 58.095 165.085L66.87 170.143Z" fill="black"/>
<path opacity="0.3" d="M328.827 21.942C328.495 19.53 326.548 18.655 324.19 20.006L70.176 166.672C68.892 167.413 67.73 168.675 66.867 170.147L58.092 165.079C58.944 163.629 60.106 162.346 61.401 161.604L315.416 14.949C318.005 13.455 322.055 13.378 324.49 14.783C326.703 16.055 328.528 19.143 328.827 21.942Z" fill="black"/>
<path d="M98.401 390.079C98.369 390.09 97.809 390.511 96.57 390.634C95.611 390.729 94.611 390.584 93.89 390.164C92.674 389.464 91.705 387.699 91.705 386.214L91.694 204.61L96.075 207.14V388.733C96.075 389.788 96.605 390.398 97.369 390.398C97.477 390.397 97.894 390.364 98.401 390.079Z" fill="#F0F0F0"/>
<path d="M97.365 389.859C96.686 389.859 96.613 389.071 96.613 388.733V192.294L102.76 188.747C103.51 188.311 104.119 186.373 105.329 182.055C105.967 179.779 106.93 176.34 107.43 175.953L162.943 143.901C163.418 144.149 164.461 145.984 165.092 147.097C166.449 149.485 167.262 150.837 168.181 150.837C168.339 150.837 168.488 150.797 168.624 150.718L339.287 52.169V247.986C339.287 249.281 338.346 250.917 337.23 251.558L98.132 389.613C97.854 389.774 97.59 389.859 97.365 389.859Z" fill="#FAFAFA"/>
<path d="M338.749 53.101V66.392V247.985C338.749 249.092 337.914 250.543 336.96 251.091L97.861 389.148C97.593 389.304 97.425 389.32 97.365 389.32C97.154 389.32 97.152 388.756 97.152 388.732V192.605L103.031 189.212C103.961 188.673 104.542 186.861 105.848 182.2C106.43 180.123 107.303 177.007 107.774 176.377L162.871 144.565C163.346 145.114 164.128 146.49 164.625 147.363C166.123 150 166.962 151.375 168.182 151.375C168.432 151.375 168.679 151.309 168.894 151.184L338.749 53.101ZM339.825 51.237L168.354 150.252C168.299 150.284 168.241 150.299 168.181 150.299C166.878 150.299 164.234 143.346 162.922 143.346C162.861 143.346 162.802 143.361 162.747 143.393L107.15 175.494C105.858 176.237 103.77 187.539 102.489 188.281L96.074 191.984V388.733C96.074 389.787 96.6 390.398 97.364 390.398C97.676 390.398 98.028 390.296 98.4 390.08L337.498 252.025C338.79 251.282 339.825 249.472 339.825 247.986V66.392V51.237Z" fill="#E0E0E0"/>
<path d="M93.886 199.155C92.679 198.458 91.7 196.688 91.7 195.202L91.697 177.01C91.697 175.524 92.743 173.717 94.03 172.974L333.125 34.917C334.412 34.174 336.434 34.137 337.642 34.834C338.849 35.531 339.828 37.301 339.823 38.786L339.825 56.98C339.83 58.467 338.786 60.272 337.498 61.015L98.401 199.07C97.114 199.813 95.093 199.852 93.886 199.155Z" fill="#14B8A6"/>
<path opacity="0.4" d="M339.802 38.406C339.641 37.2 338.661 36.759 337.499 37.437L98.4 175.494C97.765 175.871 97.184 176.506 96.753 177.238L92.383 174.709C92.814 173.977 93.384 173.351 94.03 172.974L333.128 34.919C334.409 34.176 336.433 34.133 337.638 34.833C338.747 35.479 339.662 37.007 339.802 38.406Z" fill="white"/>
<path opacity="0.1" d="M96.753 177.237C96.333 177.958 96.075 178.787 96.075 179.53V207.139L91.694 204.609L91.696 177.009C91.696 176.912 91.7 176.825 91.708 176.728C91.726 176.51 91.755 176.344 91.798 176.15C91.916 175.666 92.116 175.151 92.383 174.708L96.753 177.237Z" fill="black"/>
<path d="M339.824 38.783L339.826 51.237L168.355 150.252C167.074 150.995 166.03 150.392 166.03 148.907V144.192C166.03 142.707 164.986 142.104 163.694 142.846L107.152 175.493C105.86 176.236 104.816 178.044 104.816 179.529V184.244C104.816 185.729 103.772 187.538 102.491 188.28L96.076 191.983V179.53C96.076 178.045 97.12 176.236 98.401 175.494L337.499 37.438C338.779 36.695 339.824 37.298 339.824 38.783Z" fill="#14B8A6"/>
<path d="M328.897 46.593C330.517 45.658 331.829 46.416 331.829 48.286C331.829 50.156 330.516 52.43 328.897 53.365C327.277 54.3 325.965 53.542 325.965 51.672C325.965 49.802 327.278 47.528 328.897 46.593Z" fill="white"/>
<path d="M318.34 52.68C319.96 51.745 321.272 52.503 321.272 54.373C321.272 56.243 319.959 58.517 318.34 59.452C316.72 60.387 315.408 59.629 315.408 57.759C315.407 55.889 316.72 53.615 318.34 52.68Z" fill="white"/>
<path d="M307.782 58.767C309.402 57.832 310.714 58.59 310.714 60.46C310.714 62.33 309.401 64.604 307.782 65.539C306.162 66.474 304.849 65.716 304.849 63.846C304.849 61.976 306.162 59.702 307.782 58.767Z" fill="white"/>
<path d="M339.825 51.237V66.393L96.075 207.139V191.983L100.866 189.208C102.147 188.465 102.577 187.336 103.191 185.172L104.815 179.529C105.327 177.57 105.859 176.235 107.151 175.493L162.748 143.392C164.04 142.649 165.047 142.568 166.03 144.191L168.023 147.808C168.754 149.071 169.12 149.814 170.401 149.072L339.825 51.237Z" fill="#E6E6E6"/>
<path d="M96.075 191.984V207.139L91.694 204.61V189.465L96.075 191.984Z" fill="#E0E0E0"/>
<path opacity="0.5" d="M106.765 193.077L103.107 195.189L104.502 192.506C104.624 192.271 104.637 191.977 104.529 191.851C104.422 191.723 104.236 191.814 104.114 192.048L102.129 195.866C102.127 195.871 102.126 195.876 102.124 195.881C102.102 195.925 102.086 195.973 102.071 196.022C102.066 196.038 102.059 196.053 102.055 196.068C102.039 196.133 102.029 196.2 102.029 196.265C102.029 196.33 102.039 196.386 102.055 196.432C102.059 196.443 102.066 196.45 102.071 196.46C102.086 196.492 102.102 196.521 102.124 196.54C102.126 196.542 102.127 196.546 102.129 196.548L104.114 198.074C104.17 198.117 104.239 198.114 104.308 198.074C104.39 198.027 104.471 197.928 104.529 197.791C104.637 197.541 104.624 197.262 104.502 197.168L103.107 196.096L106.765 193.984C106.928 193.89 107.059 193.612 107.059 193.361C107.06 193.109 106.928 192.983 106.765 193.077Z" fill="#455A64"/>
<path opacity="0.5" d="M109.821 191.312L113.479 189.2L112.084 188.128C111.962 188.034 111.949 187.755 112.056 187.504C112.163 187.253 112.349 187.128 112.471 187.221L114.456 188.747C114.458 188.749 114.459 188.753 114.462 188.755C114.484 188.774 114.5 188.803 114.515 188.835C114.52 188.845 114.527 188.851 114.531 188.863C114.547 188.91 114.557 188.965 114.557 189.03C114.557 189.095 114.547 189.162 114.531 189.227C114.527 189.243 114.52 189.258 114.515 189.273C114.5 189.322 114.484 189.37 114.462 189.414C114.46 189.419 114.459 189.424 114.456 189.428L112.471 193.246C112.415 193.353 112.346 193.43 112.277 193.47C112.195 193.517 112.114 193.512 112.056 193.443C111.948 193.317 111.961 193.023 112.084 192.788L113.479 190.105L109.821 192.217C109.658 192.311 109.527 192.184 109.527 191.934C109.527 191.685 109.659 191.406 109.821 191.312Z" fill="#455A64"/>
<path opacity="0.5" d="M121.823 180.777C121.8 180.556 121.608 180.585 121.511 180.824L121.01 182.049C120.156 181.956 119.12 182.791 118.421 184.271C117.515 186.189 117.515 188.459 118.421 189.331C118.874 189.767 119.469 189.772 120.064 189.428C120.659 189.084 121.254 188.392 121.707 187.433C121.822 187.19 121.822 186.903 121.707 186.792C121.592 186.681 121.406 186.789 121.291 187.032C120.615 188.462 119.514 189.1 118.837 188.449C118.16 187.798 118.16 186.103 118.837 184.67C119.318 183.651 120.011 183.048 120.615 183.011L120.237 183.935C120.139 184.175 120.229 184.398 120.383 184.298L121.875 183.324C121.98 183.256 122.057 183.066 122.042 182.915L121.823 180.777Z" fill="#455A64"/>
<path opacity="0.5" d="M161.144 150.311L162.477 147.488C162.635 147.154 162.635 146.761 162.477 146.609C162.319 146.457 162.064 146.605 161.906 146.939L160.573 149.762L159.239 148.479C159.081 148.327 158.826 148.475 158.668 148.809C158.51 149.143 158.51 149.536 158.668 149.688L160.002 150.971L158.668 153.794C158.51 154.128 158.51 154.521 158.668 154.673C158.747 154.749 158.85 154.75 158.953 154.69C159.056 154.63 159.16 154.51 159.238 154.343L160.572 151.52L161.905 152.804C161.984 152.88 162.087 152.881 162.19 152.821C162.293 152.761 162.397 152.641 162.475 152.474C162.633 152.14 162.633 151.747 162.475 151.595L161.144 150.311Z" fill="#455A64"/>
<path d="M126.677 184.248V179.532C126.677 178.046 127.72 176.239 129.008 175.496L324.381 62.737C325.668 61.994 326.711 62.596 326.711 64.082V68.797C326.711 70.283 325.667 72.09 324.38 72.833L129.008 185.593C127.721 186.336 126.677 185.734 126.677 184.248Z" fill="#FAFAFA"/>
<path d="M323.022 65.229L323.634 66.529C323.672 66.611 323.747 66.64 323.834 66.607L325.203 66.082C325.42 65.999 325.507 66.305 325.35 66.6L324.36 68.459C324.297 68.576 324.269 68.71 324.284 68.816L324.518 70.499C324.555 70.766 324.328 71.118 324.133 71.093L322.909 70.942C322.832 70.933 322.74 70.986 322.662 71.084L321.438 72.649C321.244 72.898 321.016 72.809 321.053 72.499L321.287 70.547C321.302 70.424 321.273 70.323 321.211 70.278L320.221 69.563C320.064 69.449 320.15 69.043 320.368 68.875L321.736 67.82C321.822 67.754 321.897 67.638 321.936 67.511L322.548 65.504C322.644 65.185 322.925 65.023 323.022 65.229Z" stroke="#E0E0E0" stroke-width="0.8073" stroke-miterlimit="10"/>
<g opacity="0.5">
<path d="M329.459 62.162C329.18 62.162 328.908 62.017 328.759 61.758C328.536 61.372 328.669 60.878 329.054 60.655L335.612 56.868C336 56.645 336.492 56.778 336.715 57.163C336.938 57.549 336.805 58.043 336.42 58.266L329.862 62.053C329.735 62.127 329.596 62.162 329.459 62.162Z" fill="#455A64"/>
<path d="M329.459 65.95C329.18 65.95 328.908 65.805 328.759 65.546C328.536 65.16 328.669 64.666 329.054 64.443L335.612 60.656C336 60.431 336.492 60.566 336.715 60.951C336.938 61.337 336.805 61.831 336.42 62.054L329.862 65.841C329.735 65.915 329.596 65.95 329.459 65.95Z" fill="#455A64"/>
<path d="M329.459 69.738C329.18 69.738 328.908 69.593 328.759 69.334C328.536 68.948 328.669 68.454 329.054 68.231L335.612 64.444C336 64.219 336.492 64.354 336.715 64.739C336.938 65.125 336.805 65.619 336.42 65.842L329.862 69.629C329.735 69.703 329.596 69.738 329.459 69.738Z" fill="#455A64"/>
</g>
<g opacity="0.5">
<path d="M103.267 211.383C102.988 211.383 102.716 211.238 102.567 210.979C102.344 210.593 102.477 210.099 102.862 209.876L109.42 206.089C109.808 205.866 110.3 205.999 110.523 206.384C110.746 206.77 110.613 207.264 110.227 207.487L103.669 211.274C103.543 211.348 103.404 211.383 103.267 211.383Z" fill="#455A64"/>
<path d="M103.267 215.171C102.988 215.171 102.716 215.026 102.567 214.767C102.344 214.381 102.477 213.887 102.862 213.664L109.42 209.877C109.808 209.652 110.3 209.787 110.523 210.172C110.746 210.558 110.613 211.052 110.227 211.275L103.669 215.062C103.543 215.136 103.404 215.171 103.267 215.171Z" fill="#455A64"/>
<path d="M103.267 218.959C102.988 218.959 102.716 218.814 102.567 218.555C102.344 218.169 102.477 217.675 102.862 217.452L109.42 213.665C109.808 213.44 110.3 213.575 110.523 213.96C110.746 214.346 110.613 214.84 110.227 215.063L103.669 218.85C103.543 218.924 103.404 218.959 103.267 218.959Z" fill="#455A64"/>
</g>
<path d="M161.447 177.988L161.448 183.798C161.448 184.986 162.29 185.471 163.318 184.878L241.244 139.822L241.243 129.693L163.316 174.749C162.289 175.343 161.447 176.801 161.447 177.988Z" fill="#E6E6E6"/>
<path d="M251.071 124.02C252.104 123.424 252.941 123.907 252.941 125.1V130.911C252.941 132.104 252.104 133.554 251.071 134.15L241.245 139.823L241.244 129.694L251.071 124.02Z" fill="#14B8A6"/>
<path d="M250.344 131.986L249.248 131.644C249.361 131.179 249.424 130.701 249.424 130.232C249.424 129.111 249.06 128.258 248.425 127.891C247.953 127.619 247.385 127.646 246.827 127.969C245.599 128.678 244.637 130.68 244.637 132.527C244.637 133.648 245.001 134.501 245.636 134.868C245.851 134.992 246.086 135.054 246.331 135.054C246.623 135.054 246.93 134.966 247.233 134.791C247.971 134.365 248.609 133.468 249.003 132.421L250.101 132.763C250.142 132.776 250.182 132.781 250.222 132.781C250.396 132.781 250.556 132.67 250.61 132.495C250.678 132.281 250.559 132.053 250.344 131.986ZM246.827 134.087C246.523 134.263 246.259 134.29 246.043 134.164C245.677 133.953 245.45 133.326 245.45 132.528C245.45 130.997 246.266 129.233 247.233 128.674C247.412 128.572 247.576 128.519 247.725 128.519C247.83 128.519 247.928 128.545 248.017 128.597C248.382 128.808 248.609 129.435 248.609 130.234C248.611 131.763 247.794 133.528 246.827 134.087Z" fill="#FAFAFA"/>
<path d="M129.061 194.529L117.806 201.036C116.777 201.63 115.943 203.075 115.943 204.263V210.051C115.943 211.239 116.777 211.721 117.806 211.127L129.06 204.62C130.089 204.026 130.923 202.581 130.923 201.393L130.924 195.604C130.924 194.416 130.09 193.934 129.061 194.529Z" fill="#14B8A6"/>
<path d="M324.713 81.559C322.292 82.958 320.328 86.358 320.328 89.155C320.328 91.952 322.292 93.085 324.713 91.687C327.134 90.289 329.1 86.888 329.098 84.091C329.096 81.295 327.132 80.161 324.713 81.559Z" fill="#14B8A6"/>
<path d="M324.201 86.019C324.061 86.019 323.93 85.985 323.812 85.917C323.539 85.76 323.39 85.448 323.39 85.04C323.39 84.293 323.897 83.414 324.545 83.04C324.897 82.836 325.241 82.81 325.516 82.968C325.788 83.126 325.939 83.437 325.939 83.845C325.939 84.592 325.432 85.471 324.785 85.845C324.582 85.961 324.384 86.019 324.201 86.019Z" fill="white"/>
<path d="M326.445 86.311C326.014 86.062 325.467 86.104 324.901 86.43L324.264 86.796C323.158 87.436 322.291 88.938 322.291 90.215V90.666C322.916 91.013 323.768 90.954 324.712 90.41C325.654 89.868 326.509 88.94 327.133 87.874V87.765C327.134 87.092 326.885 86.564 326.445 86.311Z" fill="white"/>
<path d="M309.205 95.123V93.575C309.205 91.809 308.131 90.997 306.806 91.762C305.481 92.527 304.407 94.579 304.407 96.345V97.729C304.407 98.599 304.105 99.588 303.6 100.431C303.599 100.433 303.598 100.435 303.597 100.437C303.476 100.654 303.401 100.909 303.401 101.145C303.401 101.59 303.672 101.794 304.005 101.602L309.608 98.367C309.942 98.174 310.212 97.657 310.212 97.212C310.212 96.989 310.144 96.827 310.035 96.744C310.032 96.742 310.029 96.74 310.026 96.739C309.53 96.515 309.205 95.957 309.205 95.123Z" fill="#14B8A6"/>
<path d="M307.957 99.797C307.957 100.645 307.441 101.63 306.805 101.997C306.169 102.364 305.653 101.974 305.653 101.126L307.957 99.797Z" fill="#14B8A6"/>
<path d="M288.52 102.485C288.864 102.286 289.188 102.172 289.492 102.144C289.798 102.115 290.062 102.166 290.286 102.296C290.51 102.427 290.686 102.632 290.814 102.913C290.944 103.194 291.008 103.546 291.008 103.972C291.008 104.312 290.972 104.632 290.898 104.93C290.824 105.228 290.73 105.514 290.618 105.787C290.504 106.061 290.38 106.32 290.244 106.563C290.11 106.807 289.978 107.045 289.852 107.28C289.726 107.514 289.612 107.747 289.512 107.981C289.41 108.214 289.34 108.446 289.304 108.675C289.286 108.79 289.256 108.897 289.216 108.996C289.176 109.095 289.122 109.163 289.056 109.202L287.932 109.851C287.862 109.89 287.804 109.887 287.756 109.839C287.706 109.791 287.682 109.716 287.682 109.611C287.682 109.299 287.724 108.996 287.806 108.702C287.89 108.408 287.992 108.125 288.114 107.85C288.238 107.576 288.372 107.311 288.516 107.058C288.66 106.803 288.794 106.563 288.916 106.336C289.04 106.109 289.142 105.891 289.226 105.682C289.308 105.473 289.35 105.274 289.35 105.085C289.35 104.811 289.282 104.634 289.146 104.556C289.012 104.478 288.804 104.521 288.52 104.684C288.244 104.844 288.046 105.022 287.926 105.22C287.806 105.416 287.718 105.607 287.664 105.79C287.608 105.974 287.56 106.141 287.52 106.292C287.48 106.443 287.402 106.552 287.286 106.619L286.16 107.269C286.106 107.301 286.058 107.3 286.018 107.266C285.978 107.232 285.958 107.169 285.958 107.073C285.964 106.738 286.026 106.356 286.142 105.923C286.26 105.491 286.426 105.059 286.644 104.626C286.864 104.193 287.13 103.785 287.442 103.406C287.756 103.026 288.114 102.719 288.52 102.485ZM289.323 111.716C289.323 111.82 289.299 111.925 289.249 112.028C289.201 112.132 289.141 112.204 289.075 112.243L287.913 112.914C287.845 112.953 287.787 112.949 287.739 112.901C287.689 112.854 287.665 112.779 287.665 112.675V111.241C287.665 111.137 287.689 111.033 287.739 110.928C287.787 110.824 287.845 110.753 287.913 110.714L289.075 110.043C289.141 110.004 289.201 110.008 289.249 110.055C289.299 110.102 289.323 110.178 289.323 110.282V111.716Z" fill="#14B8A6"/>
<path d="M161.557 282.627C160.637 282.627 159.786 282.275 159.096 281.607C158.198 280.744 157.739 279.518 157.739 277.971V270.571L137.959 281.992C137.328 282.356 136.673 282.542 136.013 282.542C135.095 282.542 134.245 282.19 133.556 281.526C132.654 280.661 132.194 279.434 132.194 277.885V265.696C132.194 263.403 132.577 261.248 133.333 259.29L155.676 203.017C156.221 201.677 156.733 200.709 157.248 200.038C157.827 199.291 158.585 198.645 159.51 198.11L170.791 191.596C171.425 191.232 172.078 191.048 172.737 191.048C173.653 191.048 174.502 191.397 175.19 192.058C176.1 192.939 176.557 194.162 176.557 195.703V235.533L179.231 233.989C179.86 233.625 180.515 233.44 181.177 233.44C182.09 233.44 182.937 233.787 183.626 234.444C184.542 235.336 184.997 236.558 184.997 238.095V250.284C184.997 251.496 184.716 252.706 184.161 253.881C183.544 255.189 182.726 256.143 181.732 256.718L176.556 259.706V269.991C176.556 271.201 176.275 272.411 175.721 273.588C175.099 274.902 174.281 275.857 173.285 276.428L163.505 282.076C162.873 282.442 162.218 282.627 161.557 282.627ZM154.684 248.16L158.111 246.181V239.533L154.684 248.16Z" fill="#E0E0E0"/>
<path d="M203.288 257.627C203.086 257.627 202.888 257.622 202.69 257.612C199.363 257.448 196.552 256.21 194.336 253.932C192.272 251.813 190.729 248.863 189.753 245.164C188.839 241.719 188.295 237.827 188.139 233.601C188.039 230.511 187.989 227.108 187.989 223.475C187.989 219.842 188.04 216.306 188.138 212.963C188.293 208.598 188.826 204.158 189.72 199.752C190.621 195.296 192.013 190.997 193.856 186.977C195.707 182.939 198.073 179.171 200.889 175.777C203.758 172.323 207.227 169.408 211.199 167.115C215.137 164.841 218.544 163.735 221.611 163.735C221.813 163.735 222.011 163.74 222.209 163.75C225.54 163.92 228.349 165.157 230.561 167.429C232.627 169.556 234.168 172.505 235.145 176.196C236.059 179.652 236.602 183.543 236.758 187.76C236.858 191.073 236.908 194.552 236.908 198.118C236.908 201.688 236.857 205.147 236.759 208.399C236.604 212.756 236.073 217.196 235.178 221.607C234.274 226.07 232.882 230.369 231.042 234.383C229.19 238.425 226.824 242.194 224.008 245.583C221.141 249.037 217.672 251.951 213.698 254.245C209.761 256.521 206.354 257.627 203.288 257.627ZM215.822 189.04C215.604 189.04 214.962 189.119 213.698 189.848C212.488 190.547 211.471 191.413 210.679 192.419C209.84 193.484 209.158 194.682 208.653 195.98C208.121 197.347 207.715 198.856 207.445 200.459C207.166 202.122 207.002 203.886 206.956 205.699C206.709 212.146 206.709 218.581 206.955 224.859C207.001 226.629 207.15 228.18 207.399 229.505C207.648 230.832 208.016 231.529 208.282 231.88C208.527 232.206 208.737 232.289 208.997 232.318C209.005 232.319 209.012 232.319 209.019 232.319C209.328 232.319 209.97 232.226 211.198 231.517C212.408 230.819 213.423 229.953 214.218 228.944C215.065 227.869 215.762 226.657 216.29 225.339C216.839 223.975 217.24 222.486 217.484 220.914C217.74 219.26 217.893 217.491 217.941 215.662C218.137 209.104 218.137 202.656 217.941 196.486C217.85 194.807 217.675 193.247 217.423 191.901C217.221 190.833 216.911 189.979 216.529 189.438C216.321 189.144 216.144 189.072 215.894 189.042L215.822 189.04Z" fill="#E0E0E0"/>
<path d="M271.232 219.307C270.312 219.307 269.461 218.954 268.771 218.287C267.873 217.424 267.414 216.198 267.414 214.651V207.251L247.634 218.672C247.003 219.036 246.348 219.222 245.688 219.222C244.77 219.222 243.92 218.87 243.231 218.206C242.329 217.341 241.869 216.114 241.869 214.565V202.375C241.869 200.082 242.252 197.927 243.008 195.969L265.351 139.696C265.896 138.356 266.408 137.388 266.923 136.717C267.502 135.97 268.26 135.324 269.185 134.789L280.466 128.275C281.1 127.911 281.753 127.727 282.412 127.727C283.328 127.727 284.177 128.076 284.865 128.737C285.775 129.618 286.232 130.841 286.232 132.382V172.212L288.906 170.668C289.535 170.304 290.19 170.119 290.852 170.119C291.765 170.119 292.612 170.466 293.301 171.123C294.217 172.015 294.672 173.237 294.672 174.774V186.963C294.672 188.175 294.391 189.385 293.836 190.56C293.219 191.868 292.401 192.822 291.407 193.397L286.231 196.385V206.67C286.231 207.88 285.95 209.09 285.396 210.267C284.774 211.581 283.956 212.536 282.96 213.107L273.18 218.755C272.548 219.122 271.892 219.307 271.232 219.307ZM264.359 184.84L267.786 182.861V176.213L264.359 184.84Z" fill="#E0E0E0"/>
<path d="M190.482 241.301C190.401 241.224 190.317 241.161 190.23 241.112C189.888 240.92 182.638 236.732 182.638 236.732V200.75C182.638 199.908 182.439 199.295 182.041 198.91C181.964 198.836 181.883 198.775 181.8 198.727C181.455 198.528 173.767 194.091 173.689 194.044C173.341 193.837 172.943 193.862 172.497 194.118L161.219 200.63C160.572 201.005 160.061 201.435 159.687 201.917C159.315 202.401 158.904 203.194 158.456 204.296L136.122 260.546C135.475 262.224 135.151 264.058 135.151 266.052V278.241C135.151 279.085 135.348 279.698 135.748 280.081C135.829 280.159 135.914 280.223 136.001 280.272C136.343 280.464 144.03 284.907 144.113 284.956C144.458 285.156 144.85 285.128 145.291 284.873L160.697 275.978V278.327C160.697 279.171 160.895 279.784 161.294 280.167C161.372 280.242 161.452 280.304 161.536 280.352C161.88 280.551 169.574 284.992 169.657 285.04C170.002 285.241 170.396 285.214 170.839 284.958L180.623 279.308C181.17 278.994 181.644 278.413 182.043 277.57C182.44 276.726 182.64 275.885 182.64 275.039V263.31L189.064 259.601C189.611 259.285 190.085 258.706 190.484 257.861C190.881 257.019 191.081 256.175 191.081 255.332V243.143C191.079 242.299 190.88 241.688 190.482 241.301Z" fill="#14B8A6"/>
<path opacity="0.15" d="M167.757 206.597L167.717 206.737C167.367 207.227 166.987 207.977 166.577 208.987L144.247 265.237C143.957 265.977 143.737 266.747 143.587 267.547L135.407 262.827C135.567 262.037 135.777 261.277 136.057 260.547L158.387 204.297C158.837 203.197 159.247 202.397 159.627 201.917C159.627 201.917 159.627 201.907 159.637 201.907L167.757 206.597Z" fill="black"/>
<path opacity="0.3" d="M144.017 284.897C143.097 284.367 136.327 280.457 135.997 280.277C135.917 280.227 135.827 280.157 135.747 280.077C135.347 279.697 135.147 279.087 135.147 278.237V266.057C135.147 264.937 135.267 263.877 135.467 262.857L143.587 267.547C143.377 268.557 143.277 269.627 143.277 270.747V282.937C143.277 283.777 143.477 284.387 143.867 284.767C143.917 284.817 143.967 284.857 144.017 284.897Z" fill="black"/>
<path opacity="0.3" d="M169.197 231.517V252.677L162.357 248.727L169.197 231.517Z" fill="black"/>
<path opacity="0.4" d="M169.197 252.677L158.287 258.967L162.357 248.727L169.197 252.677Z" fill="black"/>
<path opacity="0.3" d="M169.417 284.857C169.467 284.897 169.507 284.937 169.557 284.977C168.647 284.457 161.857 280.537 161.537 280.357C161.447 280.307 161.367 280.247 161.297 280.167C160.897 279.787 160.697 279.167 160.697 278.327V275.977L168.817 271.287V283.017C168.817 283.857 169.017 284.477 169.417 284.857Z" fill="black"/>
<path opacity="0.15" d="M190.137 241.067C189.817 240.927 189.457 240.967 189.067 241.197L182.637 244.907V236.737C182.637 236.737 189.247 240.547 190.137 241.067Z" fill="black"/>
<path opacity="0.4" d="M181.747 198.697C181.417 198.527 181.037 198.567 180.617 198.807L169.347 205.317C168.697 205.697 168.197 206.117 167.817 206.597L159.697 201.907C160.067 201.427 160.577 201.007 161.217 200.627L172.497 194.117C172.947 193.857 173.337 193.837 173.687 194.047C173.767 194.087 180.987 198.257 181.747 198.697Z" fill="white"/>
<path d="M170.837 284.96C170.288 285.276 169.815 285.243 169.417 284.858C169.019 284.475 168.82 283.862 168.82 283.018V271.288L145.29 284.874C144.742 285.19 144.27 285.157 143.871 284.772C143.472 284.389 143.274 283.776 143.274 282.932V270.742C143.274 268.748 143.597 266.914 144.245 265.236L166.579 208.986C167.027 207.884 167.438 207.091 167.81 206.607C168.184 206.125 168.695 205.695 169.342 205.32L180.62 198.808C181.167 198.494 181.641 198.527 182.04 198.91C182.437 199.295 182.637 199.908 182.637 200.75V244.91L189.061 241.201C189.608 240.885 190.082 240.92 190.481 241.301C190.878 241.688 191.078 242.299 191.078 243.143V255.332C191.078 256.176 190.879 257.02 190.481 257.861C190.082 258.707 189.608 259.285 189.061 259.601L182.637 263.31V275.039C182.637 275.885 182.438 276.727 182.04 277.57C181.641 278.414 181.167 278.994 180.62 279.308L170.837 284.96ZM169.193 252.673V231.515L158.288 258.97L169.193 252.673Z" fill="#14B8A6"/>
<path d="M242.842 192.901C242.692 188.848 242.181 185.176 241.31 181.883C240.439 178.592 239.118 176.039 237.352 174.221C236.73 173.582 236.05 173.047 235.313 172.617C233.957 171.824 227.917 168.351 227.176 167.919C225.823 167.131 224.279 166.694 222.543 166.605C219.854 166.472 216.641 167.482 212.906 169.638C209.172 171.794 205.96 174.493 203.27 177.732C200.582 180.972 198.353 184.521 196.585 188.377C194.817 192.234 193.496 196.313 192.627 200.609C191.754 204.908 191.244 209.17 191.094 213.396C190.994 216.751 190.946 220.23 190.946 223.834C190.946 227.438 190.995 230.781 191.094 233.867C191.244 237.92 191.754 241.594 192.627 244.885C193.496 248.178 194.817 250.733 196.585 252.547C197.203 253.182 197.877 253.715 198.608 254.144C199.967 254.943 206.088 258.472 206.873 258.915C208.198 259.663 209.705 260.079 211.394 260.163C214.083 260.296 217.295 259.286 221.03 257.13C224.764 254.974 227.977 252.275 230.667 249.036C233.355 245.8 235.584 242.249 237.352 238.391C239.118 234.537 240.439 230.457 241.31 226.159C242.181 221.862 242.692 217.598 242.842 213.372C242.94 210.173 242.99 206.77 242.99 203.167C242.991 199.563 242.94 196.143 242.842 192.901ZM213.326 233.771C213.171 232.629 213.074 231.377 213.038 230.004C212.788 223.633 212.788 217.191 213.038 210.684C213.087 208.741 213.262 206.875 213.56 205.092C213.86 203.309 214.308 201.653 214.905 200.117C215.503 198.586 216.3 197.185 217.296 195.92C218.179 194.798 219.269 193.845 220.542 193.04C220.706 194.176 220.826 195.416 220.898 196.765C221.096 203.015 221.096 209.454 220.898 216.085C220.847 218.03 220.685 219.888 220.413 221.655C220.139 223.423 219.69 225.081 219.068 226.628C218.446 228.177 217.635 229.583 216.64 230.847C215.742 231.989 214.631 232.958 213.326 233.771Z" fill="#14B8A6"/>
<path opacity="0.15" d="M206.657 258.787C205.307 258.017 199.877 254.887 198.607 254.147C197.877 253.717 197.207 253.177 196.587 252.547C194.817 250.727 193.497 248.177 192.627 244.887C191.757 241.597 191.247 237.917 191.097 233.867C190.997 230.777 190.947 227.437 190.947 223.837C190.947 220.227 190.997 216.747 191.097 213.397C191.247 209.167 191.757 204.907 192.627 200.607C193.237 197.577 194.077 194.667 195.147 191.857L203.257 196.557C202.197 199.357 201.367 202.277 200.757 205.297C199.877 209.597 199.367 213.857 199.217 218.087C199.117 221.437 199.067 224.917 199.067 228.527C199.067 232.127 199.117 235.467 199.217 238.557C199.367 242.607 199.877 246.287 200.757 249.577C201.617 252.867 202.947 255.427 204.707 257.237C205.297 257.847 205.957 258.367 206.657 258.787Z" fill="black"/>
<path opacity="0.4" d="M235.007 172.447C233.727 171.767 232.277 171.387 230.667 171.297C227.977 171.167 224.767 172.177 221.027 174.327C217.297 176.487 214.087 179.187 211.397 182.427C208.707 185.667 206.477 189.207 204.707 193.067C204.437 193.647 204.187 194.237 203.937 194.837C203.707 195.407 203.487 195.977 203.267 196.557H203.257L195.147 191.857C195.337 191.347 195.537 190.837 195.747 190.337C196.017 189.677 196.287 189.027 196.587 188.377C198.357 184.517 200.587 180.977 203.267 177.727C205.957 174.497 209.177 171.797 212.907 169.637C216.637 167.477 219.857 166.477 222.547 166.607C224.277 166.697 225.827 167.127 227.177 167.917C227.877 168.327 233.217 171.397 235.007 172.447Z" fill="white"/>
<path opacity="0.3" d="M229.027 220.777C228.977 222.717 228.807 224.577 228.537 226.347C228.267 228.117 227.817 229.767 227.197 231.317C226.927 231.987 226.617 232.637 226.267 233.257L218.147 228.567C218.487 227.947 218.797 227.297 219.067 226.627C219.687 225.077 220.137 223.427 220.417 221.657C220.687 219.887 220.847 218.027 220.897 216.087C221.097 209.457 221.097 203.017 220.897 196.767C220.827 195.417 220.707 194.177 220.547 193.037C220.547 193.037 220.757 192.887 221.027 192.727C222.517 191.837 223.767 191.497 224.767 191.607C225.757 191.727 226.557 192.207 227.157 193.047C227.757 193.887 228.187 195.037 228.467 196.487C228.737 197.937 228.927 199.597 229.027 201.457C229.217 207.707 229.217 214.147 229.027 220.777Z" fill="black"/>
<path opacity="0.4" d="M226.267 233.257C225.827 234.067 225.327 234.827 224.767 235.537C223.767 236.807 222.527 237.867 221.027 238.727C219.537 239.597 218.297 239.967 217.297 239.847C216.297 239.737 215.487 239.267 214.867 238.437C214.247 237.607 213.797 236.467 213.527 235.017C213.447 234.617 213.387 234.197 213.327 233.767C214.627 232.957 215.747 231.987 216.637 230.847C217.197 230.137 217.707 229.377 218.147 228.567L226.267 233.257Z" fill="black"/>
<path d="M221.031 174.329C224.765 172.173 227.978 171.163 230.668 171.296C233.356 171.433 235.585 172.407 237.353 174.222C239.119 176.04 240.44 178.593 241.311 181.884C242.182 185.177 242.693 188.849 242.843 192.902C242.941 196.144 242.991 199.564 242.991 203.168C242.991 206.772 242.94 210.174 242.843 213.373C242.693 217.6 242.182 221.863 241.311 226.16C240.44 230.459 239.119 234.539 237.353 238.392C235.585 242.249 233.356 245.8 230.668 249.037C227.979 252.275 224.766 254.975 221.031 257.131C217.297 259.287 214.085 260.297 211.395 260.164C208.707 260.031 206.478 259.055 204.71 257.238C202.942 255.424 201.621 252.869 200.752 249.576C199.879 246.285 199.369 242.611 199.219 238.558C199.119 235.472 199.071 232.128 199.071 228.525C199.071 224.922 199.12 221.443 199.219 218.087C199.369 213.86 199.879 209.599 200.752 205.3C201.621 201.003 202.942 196.925 204.71 193.068C206.478 189.213 208.706 185.664 211.395 182.423C214.085 179.184 217.296 176.485 221.031 174.329ZM229.023 220.776C229.221 214.145 229.221 207.706 229.023 201.456C228.923 199.599 228.736 197.942 228.463 196.489C228.189 195.038 227.752 193.891 227.155 193.046C226.557 192.204 225.759 191.724 224.764 191.608C223.768 191.493 222.524 191.868 221.03 192.729C219.537 193.592 218.292 194.655 217.296 195.92C216.3 197.186 215.503 198.586 214.905 200.117C214.308 201.652 213.86 203.308 213.56 205.092C213.261 206.875 213.086 208.74 213.038 210.684C212.788 217.192 212.788 223.633 213.038 230.004C213.087 231.893 213.25 233.561 213.523 235.014C213.795 236.465 214.244 237.608 214.868 238.434C215.491 239.264 216.3 239.737 217.296 239.85C218.292 239.965 219.537 239.592 221.03 238.729C222.524 237.868 223.768 236.803 224.764 235.538C225.759 234.274 226.57 232.868 227.192 231.319C227.814 229.772 228.262 228.114 228.537 226.346C228.81 224.579 228.972 222.721 229.023 220.776Z" fill="#14B8A6"/>
<path d="M300.157 177.981C300.076 177.904 299.992 177.841 299.905 177.792C299.563 177.6 292.313 173.412 292.313 173.412V137.43C292.313 136.588 292.114 135.975 291.716 135.59C291.638 135.516 291.558 135.455 291.475 135.407C291.13 135.208 283.442 130.771 283.364 130.724C283.016 130.517 282.618 130.542 282.172 130.798L270.894 137.31C270.247 137.685 269.736 138.115 269.362 138.597C268.99 139.081 268.579 139.874 268.131 140.976L245.797 197.226C245.15 198.904 244.826 200.738 244.826 202.732V214.921C244.826 215.765 245.023 216.378 245.423 216.761C245.504 216.839 245.589 216.903 245.676 216.952C246.018 217.144 253.705 221.587 253.788 221.636C254.133 221.836 254.525 221.808 254.966 221.553L270.372 212.658V215.007C270.372 215.851 270.57 216.464 270.969 216.847C271.047 216.922 271.127 216.984 271.211 217.032C271.555 217.231 279.25 221.672 279.332 221.72C279.677 221.921 280.071 221.894 280.514 221.638L290.298 215.988C290.845 215.674 291.319 215.093 291.718 214.25C292.115 213.406 292.315 212.564 292.315 211.719V199.99L298.739 196.281C299.286 195.965 299.76 195.386 300.159 194.541C300.556 193.699 300.756 192.855 300.756 192.012V179.823C300.754 178.979 300.555 178.367 300.157 177.981Z" fill="#14B8A6"/>
<path opacity="0.15" d="M277.432 143.276L277.392 143.416C277.042 143.906 276.662 144.656 276.252 145.666L253.922 201.916C253.632 202.656 253.412 203.426 253.262 204.226L245.082 199.506C245.242 198.716 245.452 197.956 245.732 197.226L268.062 140.976C268.512 139.876 268.922 139.076 269.302 138.596C269.302 138.596 269.302 138.586 269.312 138.586L277.432 143.276Z" fill="black"/>
<path opacity="0.3" d="M253.692 221.576C252.772 221.046 246.002 217.136 245.672 216.956C245.592 216.906 245.502 216.836 245.422 216.756C245.022 216.376 244.822 215.766 244.822 214.916V202.736C244.822 201.616 244.942 200.556 245.142 199.536L253.262 204.226C253.052 205.236 252.952 206.306 252.952 207.426V219.616C252.952 220.456 253.152 221.066 253.542 221.446C253.592 221.496 253.642 221.536 253.692 221.576Z" fill="black"/>
<path opacity="0.3" d="M278.872 168.196V189.356L272.032 185.406L278.872 168.196Z" fill="black"/>
<path opacity="0.4" d="M278.872 189.356L267.962 195.646L272.032 185.406L278.872 189.356Z" fill="black"/>
<path opacity="0.3" d="M279.092 221.536C279.142 221.576 279.182 221.616 279.232 221.656C278.322 221.136 271.532 217.216 271.212 217.036C271.122 216.986 271.042 216.926 270.972 216.846C270.572 216.466 270.372 215.846 270.372 215.006V212.656L278.492 207.966V219.696C278.492 220.536 278.692 221.156 279.092 221.536Z" fill="black"/>
<path opacity="0.15" d="M299.812 177.746C299.492 177.606 299.132 177.646 298.742 177.876L292.312 181.586V173.416C292.312 173.416 298.922 177.226 299.812 177.746Z" fill="black"/>
<path opacity="0.4" d="M291.422 135.376C291.092 135.206 290.712 135.246 290.292 135.486L279.022 141.996C278.372 142.376 277.872 142.796 277.492 143.276L269.372 138.586C269.742 138.106 270.252 137.686 270.892 137.306L282.172 130.796C282.622 130.536 283.012 130.516 283.362 130.726C283.442 130.766 290.662 134.936 291.422 135.376Z" fill="white"/>
<path d="M280.512 221.639C279.963 221.955 279.49 221.922 279.092 221.537C278.694 221.154 278.495 220.541 278.495 219.697V207.967L254.965 221.553C254.417 221.869 253.945 221.836 253.546 221.451C253.147 221.068 252.949 220.455 252.949 219.611V207.422C252.949 205.428 253.272 203.594 253.92 201.916L276.254 145.666C276.702 144.564 277.113 143.771 277.486 143.287C277.86 142.805 278.371 142.375 279.018 142L290.296 135.488C290.843 135.174 291.316 135.207 291.716 135.59C292.113 135.975 292.313 136.588 292.313 137.43V181.59L298.737 177.881C299.284 177.565 299.757 177.6 300.157 177.981C300.554 178.368 300.754 178.979 300.754 179.823V192.012C300.754 192.856 300.555 193.7 300.157 194.541C299.757 195.387 299.284 195.965 298.737 196.281L292.313 199.99V211.719C292.313 212.565 292.114 213.407 291.716 214.25C291.317 215.094 290.843 215.674 290.296 215.988L280.512 221.639ZM278.868 189.352V168.194L267.963 195.649L278.868 189.352Z" fill="#14B8A6"/>
<path d="M201.221 292.433C201.346 292.361 201.453 292.369 201.543 292.455C201.633 292.542 201.678 292.682 201.678 292.873V295.633C201.678 295.824 201.633 296.016 201.543 296.207C201.452 296.397 201.346 296.528 201.221 296.599L193.203 301.23C193.079 301.301 192.971 301.294 192.882 301.207C192.791 301.121 192.746 300.982 192.746 300.791V283.965C192.746 283.774 192.791 283.583 192.882 283.391C192.972 283.201 193.079 283.07 193.203 282.998L201.087 278.445C201.211 278.374 201.317 278.382 201.408 278.468C201.499 278.555 201.544 278.695 201.544 278.884V281.646C201.544 281.837 201.499 282.028 201.408 282.218C201.317 282.409 201.211 282.54 201.087 282.613L195.876 285.621V288.435L200.715 285.641C200.839 285.57 200.945 285.577 201.036 285.664C201.127 285.751 201.172 285.891 201.172 286.08V288.842C201.172 289.033 201.127 289.224 201.036 289.414C200.945 289.605 200.839 289.736 200.715 289.809L195.876 292.602V295.52L201.221 292.433Z" fill="#455A64"/>
<path d="M209.087 273.825C209.831 273.395 210.497 273.132 211.084 273.036C211.67 272.941 212.169 273.019 212.581 273.267C212.993 273.515 213.309 273.955 213.528 274.581C213.748 275.21 213.858 276.028 213.858 277.036C213.858 278.337 213.682 279.519 213.334 280.581C212.984 281.642 212.488 282.585 211.845 283.407L213.943 288.395C213.977 288.479 213.994 288.565 213.994 288.651C213.994 288.807 213.958 288.964 213.885 289.12C213.811 289.274 213.724 289.382 213.622 289.44L211.322 290.768C211.095 290.898 210.935 290.913 210.84 290.811C210.743 290.711 210.667 290.598 210.611 290.475L208.733 285.985L207.176 286.883V292.457C207.176 292.648 207.13 292.84 207.041 293.03C206.95 293.22 206.843 293.352 206.719 293.423L204.503 294.702C204.378 294.774 204.272 294.766 204.182 294.68C204.091 294.593 204.046 294.453 204.046 294.262V277.436C204.046 277.247 204.091 277.055 204.182 276.864C204.272 276.673 204.378 276.542 204.503 276.469L209.087 273.825ZM207.176 282.82L209.087 281.717C209.561 281.444 209.953 281.078 210.264 280.622C210.574 280.165 210.729 279.571 210.729 278.843C210.729 278.113 210.574 277.698 210.264 277.601C209.953 277.501 209.561 277.589 209.087 277.863L207.176 278.967V282.82Z" fill="#455A64"/>
<path d="M221.269 266.792C222.013 266.362 222.678 266.1 223.265 266.004C223.852 265.909 224.351 265.986 224.762 266.234C225.174 266.482 225.49 266.922 225.709 267.549C225.929 268.178 226.039 268.996 226.039 270.003C226.039 271.305 225.864 272.487 225.515 273.548C225.165 274.609 224.669 275.552 224.027 276.374L226.125 281.362C226.158 281.447 226.176 281.532 226.176 281.619C226.176 281.775 226.139 281.931 226.066 282.087C225.993 282.241 225.905 282.349 225.803 282.407L223.503 283.735C223.277 283.866 223.116 283.88 223.021 283.779C222.925 283.678 222.849 283.566 222.792 283.442L220.914 278.952L219.358 279.85V285.424C219.358 285.615 219.312 285.807 219.222 285.998C219.131 286.188 219.024 286.32 218.901 286.391L216.684 287.671C216.56 287.742 216.454 287.735 216.363 287.649C216.272 287.563 216.227 287.423 216.227 287.232V270.406C216.227 270.216 216.272 270.024 216.363 269.833C216.454 269.642 216.56 269.511 216.684 269.44L221.269 266.792ZM219.358 275.788L221.269 274.685C221.743 274.411 222.135 274.046 222.445 273.589C222.755 273.132 222.911 272.538 222.911 271.81C222.911 271.08 222.755 270.666 222.445 270.568C222.136 270.468 221.743 270.556 221.269 270.83L219.358 271.933V275.788Z" fill="#455A64"/>
<path d="M228.018 269.694C228.052 268.703 228.19 267.707 228.433 266.707C228.675 265.707 229.02 264.763 229.464 263.872C229.91 262.98 230.451 262.164 231.089 261.424C231.726 260.682 232.462 260.07 233.296 259.588C234.12 259.113 234.854 258.876 235.496 258.879C236.139 258.881 236.682 259.07 237.128 259.447C237.574 259.824 237.917 260.371 238.16 261.09C238.402 261.81 238.541 262.647 238.574 263.599C238.597 264.333 238.608 265.108 238.608 265.924C238.608 266.74 238.597 267.511 238.574 268.236C238.541 269.228 238.402 270.222 238.16 271.223C237.917 272.222 237.574 273.171 237.128 274.072C236.683 274.972 236.139 275.789 235.496 276.525C234.853 277.26 234.12 277.867 233.296 278.341C232.462 278.823 231.726 279.066 231.089 279.069C230.451 279.071 229.91 278.881 229.464 278.496C229.02 278.11 228.675 277.557 228.433 276.839C228.19 276.118 228.052 275.283 228.018 274.33C227.995 273.632 227.985 272.874 227.985 272.058C227.985 271.242 227.996 270.454 228.018 269.694ZM235.446 269.911C235.457 269.593 235.467 269.239 235.48 268.85C235.491 268.462 235.497 268.068 235.497 267.668C235.497 267.269 235.491 266.886 235.48 266.519C235.467 266.153 235.457 265.826 235.446 265.536C235.424 265.115 235.364 264.75 235.268 264.441C235.171 264.131 235.036 263.893 234.862 263.724C234.687 263.556 234.47 263.469 234.211 263.462C233.952 263.456 233.647 263.554 233.297 263.755C232.948 263.957 232.644 264.211 232.384 264.517C232.124 264.824 231.907 265.161 231.733 265.531C231.558 265.902 231.422 266.297 231.328 266.717C231.231 267.137 231.172 267.57 231.15 268.018C231.127 268.327 231.113 268.668 231.107 269.045C231.101 269.422 231.099 269.809 231.099 270.209C231.099 270.607 231.101 270.998 231.107 271.375C231.113 271.756 231.127 272.094 231.15 272.393C231.195 273.237 231.389 273.844 231.733 274.219C232.078 274.593 232.598 274.578 233.297 274.174C233.997 273.771 234.516 273.185 234.855 272.416C235.192 271.647 235.389 270.814 235.446 269.911Z" fill="#455A64"/>
<path d="M246.019 252.503C246.763 252.073 247.429 251.81 248.016 251.714C248.602 251.619 249.101 251.696 249.513 251.944C249.924 252.192 250.24 252.632 250.459 253.258C250.68 253.887 250.789 254.705 250.789 255.713C250.789 257.014 250.614 258.196 250.265 259.258C249.916 260.318 249.419 261.262 248.777 262.084L250.875 267.072C250.908 267.156 250.926 267.242 250.926 267.328C250.926 267.484 250.89 267.641 250.816 267.797C250.743 267.951 250.656 268.059 250.554 268.117L248.253 269.445C248.027 269.575 247.866 269.59 247.772 269.488C247.675 269.388 247.599 269.275 247.543 269.152L245.664 264.662L244.108 265.56V271.134C244.108 271.325 244.062 271.517 243.972 271.707C243.882 271.897 243.775 272.029 243.651 272.1L241.434 273.379C241.31 273.451 241.204 273.444 241.113 273.358C241.022 273.271 240.978 273.131 240.978 272.94V256.114C240.978 255.925 241.022 255.733 241.113 255.542C241.204 255.351 241.31 255.22 241.434 255.147L246.019 252.503ZM244.108 261.498L246.019 260.395C246.493 260.122 246.885 259.756 247.196 259.3C247.506 258.843 247.661 258.249 247.661 257.521C247.661 256.791 247.506 256.376 247.196 256.279C246.885 256.179 246.493 256.267 246.019 256.541L244.108 257.645V261.498Z" fill="#455A64"/>
<path d="M170.714 321.235C171.759 320.632 172.572 320.542 173.152 320.965C173.73 321.389 174.02 322.332 174.02 323.797C174.02 325.26 173.73 326.546 173.152 327.652C172.573 328.758 171.759 329.613 170.714 330.216L168.639 331.414V335.865C168.639 336.012 168.605 336.158 168.535 336.304C168.467 336.451 168.385 336.551 168.289 336.606L167.239 337.212C167.143 337.268 167.061 337.262 166.992 337.194C166.923 337.129 166.889 337.021 166.889 336.875V323.981C166.889 323.835 166.922 323.689 166.992 323.542C167.061 323.395 167.143 323.295 167.239 323.24L170.714 321.235ZM168.638 328.918L170.648 327.758C171.141 327.474 171.535 327.098 171.828 326.629C172.122 326.16 172.268 325.553 172.268 324.807C172.268 324.063 172.122 323.631 171.828 323.515C171.535 323.399 171.141 323.483 170.648 323.768L168.638 324.928V328.918Z" fill="#E0E0E0"/>
<path d="M179.477 316.175C179.615 316.096 179.718 316.092 179.788 316.165C179.857 316.237 179.918 316.373 179.97 316.569L183.146 327.349C183.155 327.384 183.159 327.429 183.159 327.482C183.159 327.628 183.125 327.775 183.056 327.92C182.987 328.068 182.905 328.168 182.81 328.223L181.876 328.762C181.702 328.862 181.581 328.875 181.513 328.801C181.444 328.729 181.397 328.647 181.37 328.555L180.812 326.66L176.715 329.025L176.157 331.563C176.131 331.685 176.084 331.822 176.014 331.974C175.945 332.128 175.823 332.254 175.651 332.354L174.717 332.893C174.622 332.948 174.54 332.943 174.471 332.874C174.402 332.809 174.367 332.702 174.367 332.556C174.367 332.503 174.371 332.454 174.381 332.409L177.557 317.961C177.609 317.705 177.669 317.5 177.739 317.348C177.808 317.195 177.911 317.078 178.05 316.998L179.477 316.175ZM180.19 324.526L178.764 319.661L177.337 326.173L180.19 324.526Z" fill="#E0E0E0"/>
<path d="M184.157 318.642C184.174 317.834 184.269 317.051 184.443 316.291C184.616 315.533 184.866 314.823 185.195 314.16C185.523 313.5 185.927 312.9 186.407 312.363C186.886 311.826 187.446 311.373 188.086 311.004C188.838 310.57 189.458 310.363 189.946 310.379C190.434 310.398 190.823 310.532 191.112 310.784C191.402 311.035 191.605 311.351 191.722 311.728C191.838 312.107 191.906 312.445 191.923 312.74C191.932 312.896 191.899 313.045 191.825 313.186C191.752 313.328 191.667 313.427 191.572 313.482L190.522 314.087C190.426 314.143 190.351 314.15 190.295 314.108C190.238 314.068 190.197 314.014 190.171 313.95C190.154 313.907 190.108 313.817 190.035 313.68C189.961 313.542 189.845 313.423 189.685 313.323C189.526 313.221 189.316 313.171 189.057 313.167C188.797 313.164 188.473 313.274 188.084 313.499C187.436 313.872 186.918 314.441 186.528 315.205C186.139 315.969 185.932 316.809 185.906 317.73C185.888 318.247 185.88 318.794 185.88 319.372C185.88 319.95 185.889 320.489 185.906 320.983C185.932 322.073 186.139 322.755 186.528 323.029C186.918 323.303 187.436 323.255 188.084 322.88C188.403 322.696 188.698 322.472 188.966 322.211C189.234 321.95 189.465 321.644 189.659 321.292C189.853 320.939 190.005 320.537 190.112 320.082C190.22 319.627 190.275 319.113 190.275 318.541V318.381L188.693 319.294C188.597 319.349 188.515 319.344 188.446 319.277C188.377 319.211 188.343 319.104 188.343 318.958V317.54C188.343 317.394 188.376 317.248 188.446 317.101C188.515 316.955 188.597 316.854 188.693 316.799L191.675 315.078C191.771 315.022 191.853 315.027 191.922 315.094C191.99 315.161 192.026 315.268 192.026 315.414V317.609C192.026 318.408 191.944 319.19 191.78 319.957C191.616 320.724 191.369 321.445 191.041 322.12C190.713 322.796 190.302 323.412 189.81 323.969C189.317 324.528 188.743 324.994 188.085 325.373C187.428 325.753 186.857 325.949 186.374 325.963C185.89 325.977 185.487 325.836 185.168 325.541C184.849 325.246 184.604 324.812 184.436 324.237C184.268 323.662 184.174 322.98 184.157 322.193C184.149 321.945 184.142 321.67 184.137 321.365C184.133 321.062 184.131 320.751 184.131 320.431C184.131 320.111 184.133 319.797 184.137 319.49C184.142 319.184 184.149 318.9 184.157 318.642Z" fill="#E0E0E0"/>
<path d="M200.025 315.787C200.12 315.732 200.202 315.739 200.271 315.806C200.34 315.872 200.375 315.979 200.375 316.125V317.541C200.375 317.688 200.34 317.835 200.271 317.981C200.202 318.128 200.12 318.229 200.025 318.284L194.335 321.569C194.239 321.624 194.157 321.619 194.088 321.551C194.019 321.486 193.984 321.378 193.984 321.232V308.339C193.984 308.192 194.018 308.047 194.088 307.899C194.157 307.753 194.239 307.653 194.335 307.597L199.922 304.371C200.018 304.316 200.1 304.321 200.169 304.388C200.237 304.455 200.272 304.562 200.272 304.708V306.125C200.272 306.271 200.238 306.418 200.169 306.563C200.1 306.71 200.018 306.81 199.922 306.866L195.734 309.283V312.457L199.636 310.203C199.731 310.148 199.813 310.155 199.882 310.222C199.951 310.288 199.986 310.395 199.986 310.541V311.957C199.986 312.105 199.951 312.251 199.882 312.397C199.813 312.543 199.731 312.644 199.636 312.699L195.734 314.951V318.265L200.025 315.787Z" fill="#E0E0E0"/>
<path d="M211.472 311.674C211.324 311.759 211.212 311.764 211.135 311.689C211.058 311.614 211.001 311.553 210.966 311.507L207.336 305.299V313.523C207.336 313.669 207.302 313.817 207.232 313.961C207.164 314.109 207.082 314.209 206.986 314.264L205.936 314.869C205.84 314.925 205.758 314.92 205.689 314.852C205.62 314.787 205.585 314.68 205.585 314.534V301.639C205.585 301.493 205.619 301.348 205.689 301.2C205.758 301.053 205.84 300.954 205.936 300.899L206.843 300.375C206.989 300.29 207.102 300.285 207.18 300.36C207.258 300.434 207.314 300.496 207.348 300.542L210.979 306.749V298.526C210.979 298.379 211.013 298.234 211.083 298.086C211.152 297.94 211.234 297.84 211.329 297.785L212.379 297.177C212.474 297.122 212.556 297.128 212.625 297.195C212.694 297.262 212.73 297.369 212.73 297.515V310.408C212.73 310.555 212.695 310.702 212.625 310.848C212.556 310.995 212.474 311.096 212.379 311.151L211.472 311.674Z" fill="#E0E0E0"/>
<path d="M214.765 301.01C214.79 300.25 214.884 299.495 215.043 298.744C215.203 297.993 215.439 297.285 215.75 296.619C216.062 295.953 216.45 295.344 216.917 294.788C217.384 294.232 217.937 293.769 218.577 293.4C219.207 293.036 219.756 292.859 220.222 292.869C220.689 292.879 221.077 293.041 221.389 293.353C221.7 293.666 221.938 294.1 222.102 294.658C222.266 295.216 222.362 295.865 222.387 296.609C222.396 296.857 222.402 297.132 222.407 297.436C222.411 297.74 222.414 298.054 222.414 298.38C222.414 298.706 222.411 299.022 222.407 299.331C222.402 299.64 222.396 299.923 222.387 300.181C222.362 300.941 222.269 301.697 222.109 302.448C221.948 303.2 221.713 303.908 221.402 304.573C221.09 305.238 220.7 305.846 220.229 306.398C219.757 306.949 219.206 307.407 218.577 307.771C217.936 308.14 217.384 308.32 216.917 308.31C216.45 308.3 216.062 308.142 215.75 307.835C215.439 307.53 215.203 307.094 215.043 306.526C214.884 305.961 214.79 305.312 214.765 304.582C214.756 304.335 214.75 304.059 214.745 303.755C214.741 303.451 214.739 303.138 214.739 302.812C214.739 302.486 214.741 302.167 214.745 301.859C214.751 301.551 214.757 301.268 214.765 301.01ZM220.638 297.72C220.604 296.782 220.402 296.157 220.035 295.842C219.668 295.527 219.181 295.546 218.577 295.895C217.97 296.245 217.485 296.789 217.118 297.527C216.751 298.264 216.55 299.122 216.514 300.1C216.497 300.616 216.489 301.182 216.489 301.801C216.489 302.42 216.498 302.977 216.514 303.473C216.549 304.411 216.75 305.033 217.118 305.34C217.485 305.648 217.97 305.627 218.577 305.277C219.181 304.927 219.668 304.386 220.035 303.656C220.401 302.926 220.603 302.07 220.638 301.092C220.655 300.576 220.663 300.009 220.663 299.391C220.664 298.773 220.655 298.216 220.638 297.72Z" fill="#E0E0E0"/>
<path d="M230.283 286.842C230.378 286.787 230.46 286.793 230.529 286.86C230.598 286.926 230.634 287.033 230.634 287.179V288.596C230.634 288.743 230.599 288.889 230.529 289.036C230.46 289.182 230.378 289.283 230.283 289.338L227.95 290.685V301.623C227.95 301.769 227.915 301.917 227.846 302.062C227.777 302.209 227.695 302.31 227.6 302.365L226.55 302.97C226.455 303.025 226.373 303.02 226.304 302.952C226.235 302.887 226.2 302.78 226.2 302.634V291.696L223.867 293.043C223.772 293.098 223.69 293.091 223.621 293.024C223.552 292.958 223.517 292.852 223.517 292.706V291.289C223.517 291.143 223.552 290.997 223.621 290.849C223.69 290.702 223.772 290.603 223.867 290.548L230.283 286.842Z" fill="#E0E0E0"/>
<path d="M241.095 280.6C241.19 280.545 241.272 280.55 241.341 280.617C241.41 280.684 241.446 280.79 241.446 280.936V282.354C241.446 282.501 241.411 282.646 241.341 282.793C241.272 282.939 241.19 283.04 241.095 283.095L236.959 285.484V289.355L240.835 287.118C240.931 287.062 241.013 287.068 241.082 287.135C241.151 287.203 241.186 287.309 241.186 287.455V288.872C241.186 289.019 241.152 289.164 241.082 289.311C241.013 289.457 240.931 289.559 240.835 289.614L236.959 291.852V296.422C236.959 296.568 236.925 296.715 236.855 296.861C236.787 297.008 236.705 297.108 236.609 297.163L235.559 297.769C235.463 297.825 235.381 297.819 235.312 297.751C235.243 297.686 235.21 297.578 235.21 297.432V284.538C235.21 284.392 235.243 284.246 235.312 284.099C235.381 283.953 235.463 283.852 235.559 283.797L241.095 280.6Z" fill="#E0E0E0"/>
<path d="M242.859 284.79C242.884 284.03 242.977 283.275 243.137 282.523C243.297 281.773 243.533 281.064 243.844 280.398C244.155 279.734 244.544 279.123 245.01 278.568C245.477 278.012 246.03 277.549 246.67 277.179C247.3 276.816 247.849 276.638 248.315 276.65C248.783 276.66 249.172 276.82 249.483 277.132C249.794 277.445 250.032 277.88 250.196 278.438C250.36 278.996 250.456 279.646 250.481 280.388C250.489 280.636 250.496 280.911 250.499 281.216C250.504 281.519 250.506 281.834 250.506 282.16C250.506 282.486 250.504 282.804 250.499 283.111C250.495 283.421 250.488 283.704 250.481 283.962C250.456 284.722 250.362 285.478 250.203 286.228C250.042 286.98 249.807 287.688 249.496 288.353C249.184 289.018 248.794 289.626 248.322 290.177C247.851 290.729 247.299 291.187 246.67 291.55C246.03 291.92 245.477 292.1 245.01 292.09C244.544 292.079 244.155 291.921 243.844 291.616C243.532 291.309 243.297 290.874 243.137 290.307C242.977 289.741 242.884 289.092 242.859 288.362C242.849 288.114 242.843 287.839 242.839 287.534C242.835 287.231 242.832 286.917 242.832 286.591C242.832 286.265 242.835 285.947 242.839 285.64C242.843 285.331 242.849 285.049 242.859 284.79ZM248.732 281.5C248.697 280.56 248.496 279.935 248.128 279.623C247.761 279.309 247.274 279.326 246.67 279.676C246.065 280.026 245.578 280.569 245.211 281.307C244.844 282.044 244.643 282.902 244.608 283.881C244.59 284.397 244.583 284.963 244.583 285.582C244.583 286.199 244.591 286.758 244.608 287.254C244.642 288.192 244.843 288.814 245.211 289.12C245.578 289.428 246.065 289.406 246.67 289.056C247.274 288.707 247.761 288.167 248.128 287.435C248.495 286.705 248.696 285.851 248.732 284.872C248.749 284.356 248.757 283.789 248.757 283.171C248.757 282.553 248.749 281.996 248.732 281.5Z" fill="#E0E0E0"/>
<path d="M259.531 269.955C259.626 269.9 259.708 269.906 259.777 269.973C259.846 270.04 259.881 270.147 259.881 270.293V278.477C259.881 279.301 259.803 280.092 259.647 280.846C259.492 281.602 259.258 282.309 258.947 282.967C258.637 283.625 258.247 284.219 257.78 284.748C257.313 285.277 256.774 285.719 256.16 286.072C255.538 286.431 254.995 286.616 254.533 286.623C254.071 286.631 253.683 286.484 253.373 286.185C253.062 285.886 252.83 285.447 252.679 284.869C252.528 284.292 252.452 283.59 252.452 282.766V274.582C252.452 274.435 252.487 274.289 252.557 274.142C252.625 273.996 252.707 273.896 252.803 273.84L253.853 273.235C253.948 273.18 254.03 273.185 254.099 273.252C254.168 273.319 254.203 273.426 254.203 273.572V281.655C254.203 282.201 254.251 282.639 254.347 282.969C254.441 283.301 254.576 283.539 254.748 283.686C254.921 283.833 255.129 283.892 255.37 283.866C255.612 283.84 255.876 283.744 256.161 283.579C256.446 283.415 256.713 283.204 256.959 282.949C257.205 282.694 257.414 282.393 257.587 282.048C257.761 281.701 257.897 281.306 257.995 280.863C258.096 280.42 258.144 279.925 258.144 279.38V271.297C258.144 271.15 258.178 271.005 258.248 270.857C258.317 270.71 258.399 270.611 258.494 270.556L259.531 269.955Z" fill="#E0E0E0"/>
<path d="M268.048 279.01C267.901 279.095 267.788 279.1 267.711 279.025C267.633 278.95 267.576 278.889 267.542 278.843L263.912 272.635V280.859C263.912 281.005 263.877 281.153 263.808 281.297C263.74 281.444 263.658 281.545 263.562 281.6L262.513 282.205C262.417 282.261 262.335 282.256 262.266 282.187C262.197 282.122 262.162 282.015 262.162 281.869V268.974C262.162 268.828 262.196 268.683 262.266 268.535C262.335 268.388 262.417 268.289 262.513 268.234L263.42 267.71C263.566 267.625 263.679 267.62 263.757 267.695C263.834 267.769 263.89 267.831 263.925 267.877L267.556 274.084V265.861C267.556 265.714 267.589 265.569 267.659 265.422C267.728 265.276 267.81 265.176 267.905 265.121L268.956 264.514C269.051 264.459 269.133 264.465 269.202 264.532C269.271 264.599 269.305 264.706 269.305 264.852V277.744C269.305 277.891 269.271 278.038 269.202 278.184C269.133 278.331 269.051 278.432 268.956 278.487L268.048 279.01Z" fill="#E0E0E0"/>
<path d="M275.204 260.906C275.844 260.537 276.399 260.346 276.87 260.334C277.341 260.322 277.733 260.464 278.05 260.761C278.364 261.058 278.608 261.496 278.776 262.078C278.945 262.66 279.047 263.359 279.081 264.178C279.116 265.143 279.116 266.127 279.081 267.132C279.047 267.99 278.945 268.807 278.776 269.583C278.608 270.359 278.368 271.076 278.056 271.734C277.746 272.394 277.359 272.986 276.896 273.511C276.433 274.038 275.891 274.482 275.269 274.841L272.002 276.726C271.907 276.782 271.825 276.777 271.756 276.708C271.686 276.644 271.653 276.536 271.653 276.39V263.495C271.653 263.348 271.686 263.204 271.756 263.055C271.825 262.909 271.907 262.809 272.002 262.754L275.204 260.906ZM277.33 265.188C277.312 264.773 277.259 264.409 277.168 264.094C277.077 263.78 276.943 263.539 276.767 263.368C276.589 263.198 276.367 263.113 276.099 263.115C275.831 263.116 275.511 263.224 275.139 263.439L273.403 264.442V273.423L275.205 272.382C275.559 272.178 275.866 271.925 276.125 271.622C276.385 271.319 276.601 270.985 276.774 270.618C276.946 270.253 277.078 269.857 277.169 269.433C277.26 269.009 277.314 268.578 277.331 268.142C277.365 267.138 277.365 266.152 277.33 265.188Z" fill="#E0E0E0"/>
<path d="M421.335 48.713L371.115 77.71C370.401 78.122 369.822 79.125 369.822 79.95V144.153C369.822 144.978 370.404 145.975 371.122 146.38L375.755 148.977C376.473 149.382 377.635 149.377 378.349 148.964L428.569 119.967C429.283 119.555 429.862 118.552 429.862 117.727V53.524C429.862 52.699 429.28 51.702 428.562 51.297L423.929 48.7C423.21 48.294 422.049 48.3 421.335 48.713Z" fill="#14B8A6"/>
<path d="M377.056 148.218V84.015C377.056 83.19 377.635 82.188 378.349 81.775L428.569 52.778C429.283 52.366 429.862 52.7 429.862 53.525V117.728C429.862 118.553 429.283 119.556 428.569 119.968L378.349 148.965C377.635 149.377 377.056 149.042 377.056 148.218Z" fill="#14B8A6"/>
<path opacity="0.2" d="M378.349 148.964C377.661 149.363 376.403 149.377 375.753 148.979L371.123 146.377C370.406 145.977 369.821 144.979 369.821 144.155V79.949C369.821 79.519 369.982 79.047 370.233 78.629L377.437 82.742C377.198 83.142 377.055 83.602 377.055 84.014V148.214C377.056 148.97 377.587 149.406 378.349 148.964Z" fill="black"/>
<path opacity="0.4" d="M429.845 53.29C429.743 52.639 429.212 52.406 428.567 52.776L378.352 81.775C377.994 81.984 377.671 82.336 377.438 82.743L370.227 78.63C370.46 78.242 370.771 77.907 371.117 77.71L421.338 48.711C422.049 48.299 423.208 48.293 423.93 48.699L428.56 51.295C429.211 51.665 429.755 52.519 429.845 53.29Z" fill="white"/>
<path d="M369.821 99.299L359.415 109.884C358.86 110.449 359.052 111.29 359.611 111.653C359.825 111.793 366.814 115.796 366.814 115.796L377.055 103.466L369.821 99.299Z" fill="#14B8A6"/>
<path opacity="0.1" d="M369.821 99.299L359.415 109.884C358.86 110.449 359.052 111.29 359.611 111.653C359.825 111.793 366.814 115.796 366.814 115.796L377.055 103.466L369.821 99.299Z" fill="black"/>
<path d="M377.056 103.466L366.65 114.051C365.882 114.832 366.545 116.142 367.63 115.986L377.056 114.626C378.067 114.625 378.067 103.466 377.056 103.466Z" fill="#14B8A6"/>
<path d="M387.541 92.854L395.004 100.034" stroke="#455A64" stroke-width="2" stroke-miterlimit="10" stroke-linecap="round"/>
<path d="M387.541 104.343L395.004 88.545" stroke="#455A64" stroke-width="2" stroke-miterlimit="10" stroke-linecap="round"/>
<path d="M411.914 78.782L419.376 85.963" stroke="#455A64" stroke-width="2" stroke-miterlimit="10" stroke-linecap="round"/>
<path d="M411.914 90.271L419.376 74.474" stroke="#455A64" stroke-width="2" stroke-miterlimit="10" stroke-linecap="round"/>
<path d="M387.211 122.241L419.707 103.48" stroke="#455A64" stroke-width="2" stroke-miterlimit="10" stroke-linecap="round"/>
<path d="M407.521 110.515V119.587C407.521 122.348 409.34 123.537 411.583 122.242C413.827 120.947 415.645 117.658 415.645 114.897V105.826" stroke="#455A64" stroke-width="2" stroke-miterlimit="10" stroke-linecap="round"/>
<path d="M411.583 108.17V116.928" stroke="#455A64" stroke-width="2" stroke-miterlimit="10" stroke-linecap="round"/>
<path d="M381.288 379.604C381.337 378.075 380.886 369.603 380.413 361.802C379.915 353.594 379.922 346.076 379.922 346.076L393.802 356.445C390.784 374.883 390.487 378.951 390.444 381.966L390.099 382.246C390.123 382.316 390.186 382.572 390.183 383.017C390.183 386.597 386.151 388.543 383.008 390.941C381.766 391.888 378.156 394.685 374.505 396.538C372.219 397.697 367.57 397.82 366.988 396.349C371.41 393.584 376.692 390.067 379.73 386.711C381.183 385.109 381.188 382.742 381.288 379.604Z" fill="#FFA8A7"/>
<path d="M361.583 400.898C361.387 400.907 361.248 402.875 362.358 403.745C363.64 404.749 367.276 406.409 372.024 405.565C376.771 404.721 379.293 403.246 381.129 401.556C382.965 399.866 385.537 397.483 387.675 396.904C389.661 396.367 391.798 395.354 392.411 394.703C393.024 394.052 392.804 391.298 392.804 391.298L361.583 400.898Z" fill="#263238"/>
<path d="M390.481 380.685C390.481 380.685 390.998 380.751 391.152 381.384C391.335 382.137 391.598 384.34 391.973 385.573C392.494 387.286 392.955 390.826 392.759 392.252C392.563 393.678 389.337 394.814 387.284 395.71C385.187 396.624 382.796 398.418 380.712 400.308C378.555 402.265 373.924 404.414 370.81 404.538C367.125 404.685 362.922 403.689 361.891 402.025C360.615 399.967 361.479 398.699 366.821 395.91C367.832 395.382 371.362 393.061 372.563 392.224C375.812 389.958 378.991 386.867 380.355 383.064C380.515 382.619 380.681 382.128 381.086 381.886C381.397 381.701 381.783 381.707 382.143 381.74C383.059 381.824 383.961 382.052 384.809 382.408C385.558 382.723 386.618 383.08 386.646 384.02C386.656 384.347 386.577 384.67 386.485 384.984C386.428 385.179 386.389 385.436 386.562 385.541C386.726 385.641 386.93 385.509 387.066 385.374C387.614 384.835 388.002 384.158 388.455 383.537C388.698 383.205 388.964 382.884 389.278 382.615C389.563 382.371 389.935 382.239 390.185 381.965C390.503 381.62 390.486 381.126 390.481 380.685Z" fill="#14B8A6"/>
<path opacity="0.3" d="M390.481 380.685C390.481 380.685 390.998 380.751 391.152 381.384C391.335 382.137 391.598 384.34 391.973 385.573C392.494 387.286 392.955 390.826 392.759 392.252C392.563 393.678 389.337 394.814 387.284 395.71C385.187 396.624 382.796 398.418 380.712 400.308C378.555 402.265 373.924 404.414 370.81 404.538C367.125 404.685 362.922 403.689 361.891 402.025C360.615 399.967 361.479 398.699 366.821 395.91C367.832 395.382 371.362 393.061 372.563 392.224C375.812 389.958 378.991 386.867 380.355 383.064C380.515 382.619 380.681 382.128 381.086 381.886C381.397 381.701 381.783 381.707 382.143 381.74C383.059 381.824 383.961 382.052 384.809 382.408C385.558 382.723 386.618 383.08 386.646 384.02C386.656 384.347 386.577 384.67 386.485 384.984C386.428 385.179 386.389 385.436 386.562 385.541C386.726 385.641 386.93 385.509 387.066 385.374C387.614 384.835 388.002 384.158 388.455 383.537C388.698 383.205 388.964 382.884 389.278 382.615C389.563 382.371 389.935 382.239 390.185 381.965C390.503 381.62 390.486 381.126 390.481 380.685Z" fill="black"/>
<path opacity="0.2" d="M374.08 396.25C370.748 397.769 372.227 398.334 373.184 398.425C374.141 398.516 379.7 394.907 383.056 391.984C386.557 388.935 388.701 385.682 390.002 384.561C390.487 384.143 391.006 383.634 391.467 383.159C391.342 382.416 391.238 381.738 391.152 381.384C390.998 380.751 390.481 380.685 390.481 380.685C390.486 381.126 390.503 381.62 390.186 381.966C389.936 382.24 389.564 382.372 389.279 382.616C388.966 382.885 388.699 383.205 388.456 383.538C388.003 384.159 387.615 384.835 387.067 385.375C384.28 389.279 377.412 394.731 374.08 396.25Z" fill="black"/>
<path d="M373.401 397.914C373.476 397.91 373.55 397.882 373.61 397.828C373.748 397.704 373.76 397.491 373.635 397.353C372.621 396.224 369.783 394.801 367.298 395.193C367.114 395.221 366.988 395.394 367.017 395.577C367.045 395.76 367.198 395.882 367.401 395.858C369.722 395.497 372.332 396.909 373.135 397.803C373.205 397.882 373.304 397.919 373.401 397.914Z" fill="#EBEBEB"/>
<path d="M376.278 395.951C376.353 395.948 376.427 395.919 376.487 395.865C376.625 395.741 376.636 395.528 376.512 395.39C375.499 394.262 372.663 392.841 370.175 393.231C369.991 393.259 369.865 393.432 369.894 393.615C369.922 393.798 370.09 393.924 370.278 393.896C372.601 393.538 375.208 394.946 376.012 395.84C376.082 395.918 376.18 395.956 376.278 395.951Z" fill="#EBEBEB"/>
<path d="M379.16 394.085C379.235 394.082 379.309 394.053 379.369 393.999C379.507 393.875 379.518 393.662 379.394 393.524C378.38 392.395 375.542 390.97 373.057 391.365C372.873 391.393 372.747 391.566 372.776 391.749C372.804 391.932 372.969 392.058 373.16 392.03C375.482 391.669 378.09 393.08 378.894 393.974C378.963 394.052 379.062 394.089 379.16 394.085Z" fill="#EBEBEB"/>
<path d="M381.812 391.983C381.887 391.979 381.961 391.951 382.021 391.897C382.159 391.773 382.17 391.56 382.046 391.422C381.033 390.293 378.185 388.871 375.709 389.263C375.525 389.291 375.399 389.464 375.428 389.647C375.456 389.83 375.622 389.955 375.812 389.928C378.132 389.569 380.742 390.978 381.546 391.872C381.616 391.95 381.714 391.987 381.812 391.983Z" fill="#EBEBEB"/>
<path d="M384.409 389.883C384.482 389.88 384.555 389.852 384.614 389.8C384.755 389.678 384.768 389.465 384.646 389.326C383.25 387.724 380.219 386.769 377.735 387.16C377.551 387.188 377.425 387.361 377.454 387.544C377.482 387.727 377.649 387.848 377.838 387.825C380.075 387.474 382.9 388.348 384.139 389.768C384.21 389.849 384.31 389.888 384.409 389.883Z" fill="#EBEBEB"/>
<path d="M409.289 359.541L424.468 359.209C424.281 369.344 422.713 380.598 422.485 390.107C422.442 391.897 422.582 404.015 421.921 407.7C420.928 413.236 414.357 412.514 413.996 409.204C413.635 405.894 414.353 391.744 414.327 390.285C414.362 384.187 411.465 373.904 409.925 362.964C409.851 362.426 409.361 360.065 409.289 359.541Z" fill="#FFA8A7"/>
<path d="M411.532 411.517C411.407 414.769 411.702 416.962 412.666 418.969C413.63 420.976 415.737 421.782 417.983 421.438C420.229 421.094 423.18 419.882 424.079 417.153C424.977 414.424 425.035 412.5 424.828 409.453L411.532 411.517Z" fill="#263238"/>
<path d="M422.521 388.944C423.417 389.103 423.264 393.47 423.364 397.868C423.471 402.582 424.676 404.644 424.805 408.513C424.953 412.934 424.535 414.862 422.75 417.353C420.965 419.845 415.3 421.909 412.998 417.871C411.121 414.579 411.362 411.153 411.982 406.813C412.623 402.327 413.11 399.175 413.256 395.738C413.396 392.453 413.477 389.263 414.297 388.975C414.311 389.461 414.311 390.076 414.329 390.553C414.343 390.919 414.262 392.698 414.767 392.764C414.854 392.351 414.883 391.961 414.896 391.534C414.907 391.162 414.977 390.762 415.245 390.504C415.515 390.244 415.918 390.19 416.291 390.153C417.197 390.063 418.106 389.992 419.018 389.998C419.471 390.001 419.925 390.023 420.376 390.072C420.742 390.112 421.17 390.184 421.505 390.346C421.71 390.445 421.893 390.616 421.951 390.837C421.994 391 421.966 391.172 421.95 391.34C421.921 391.642 421.93 391.947 421.976 392.247C421.997 392.379 422.07 392.545 422.203 392.526C422.31 392.511 422.364 392.384 422.376 392.276C422.431 391.75 422.401 391.36 422.435 390.745C422.451 390.461 422.442 390.07 422.466 389.785C422.488 389.505 422.512 389.225 422.521 388.944Z" fill="#14B8A6"/>
<path opacity="0.3" d="M422.521 388.944C423.417 389.103 423.264 393.47 423.364 397.868C423.471 402.582 424.676 404.644 424.805 408.513C424.953 412.934 424.535 414.862 422.75 417.353C420.965 419.845 415.3 421.909 412.998 417.871C411.121 414.579 411.362 411.153 411.982 406.813C412.623 402.327 413.11 399.175 413.256 395.738C413.396 392.453 413.477 389.263 414.297 388.975C414.311 389.461 414.311 390.076 414.329 390.553C414.343 390.919 414.262 392.698 414.767 392.764C414.854 392.351 414.883 391.961 414.896 391.534C414.907 391.162 414.977 390.762 415.245 390.504C415.515 390.244 415.918 390.19 416.291 390.153C417.197 390.063 418.106 389.992 419.018 389.998C419.471 390.001 419.925 390.023 420.376 390.072C420.742 390.112 421.17 390.184 421.505 390.346C421.71 390.445 421.893 390.616 421.951 390.837C421.994 391 421.966 391.172 421.95 391.34C421.921 391.642 421.93 391.947 421.976 392.247C421.997 392.379 422.07 392.545 422.203 392.526C422.31 392.511 422.364 392.384 422.376 392.276C422.431 391.75 422.401 391.36 422.435 390.745C422.451 390.461 422.442 390.07 422.466 389.785C422.488 389.505 422.512 389.225 422.521 388.944Z" fill="black"/>
<path opacity="0.2" d="M421.647 410.352C421.513 411.932 423.122 411.55 423.406 409.328C423.689 407.106 422.981 401.701 423.363 397.868C423.263 393.47 423.417 389.102 422.52 388.944C422.518 388.998 422.512 389.051 422.509 389.105L422.414 391.325C422.409 391.648 422.408 391.936 422.373 392.276C422.084 395.497 421.936 401.76 421.929 404.73C421.923 407.699 421.782 408.772 421.647 410.352Z" fill="black"/>
<path opacity="0.2" d="M415.325 410.375C415.178 408.796 415.03 407.725 415 404.755C414.97 401.808 414.778 395.619 414.469 392.38C414.3 391.82 414.339 390.818 414.328 390.553C414.311 390.107 414.31 389.546 414.298 389.077C414.295 389.044 414.292 389.011 414.291 388.978C413.699 389.196 413.494 390.939 413.373 393.133C413.364 394.406 413.413 395.987 413.515 397.905C413.926 401.735 413.251 407.176 413.551 409.395C413.85 411.615 415.471 411.954 415.325 410.375Z" fill="black"/>
<path d="M414.733 410.491C414.775 410.491 414.817 410.482 414.858 410.467C414.892 410.453 418.333 409.094 421.886 410.419C422.061 410.483 422.254 410.394 422.319 410.221C422.384 410.047 422.295 409.854 422.121 409.789C418.32 408.371 414.756 409.783 414.605 409.844C414.433 409.913 414.35 410.109 414.42 410.282C414.473 410.412 414.6 410.492 414.733 410.491Z" fill="#EBEBEB"/>
<path d="M414.31 406.993C414.348 406.993 414.386 406.986 414.424 406.973C414.462 406.96 418.316 405.588 422.293 406.923C422.469 406.979 422.659 406.887 422.719 406.71C422.778 406.534 422.683 406.343 422.507 406.284C418.3 404.875 414.36 406.281 414.194 406.34C414.019 406.404 413.93 406.597 413.993 406.772C414.042 406.909 414.172 406.994 414.31 406.993Z" fill="#EBEBEB"/>
<path d="M422.388 403.648C422.516 403.648 422.638 403.574 422.694 403.45C422.769 403.28 422.695 403.08 422.526 403.004C418.609 401.241 414.409 402.912 414.231 402.985C414.058 403.054 413.976 403.25 414.046 403.423C414.117 403.595 414.316 403.674 414.484 403.608C414.524 403.592 418.604 401.973 422.248 403.619C422.294 403.639 422.341 403.648 422.388 403.648Z" fill="#EBEBEB"/>
<path d="M422.453 400.558C422.579 400.558 422.699 400.486 422.756 400.365C422.836 400.196 422.764 399.996 422.596 399.917C418.296 397.891 414.306 399.775 414.138 399.856C413.971 399.937 413.9 400.138 413.981 400.305C414.062 400.472 414.267 400.544 414.43 400.462C414.467 400.443 418.306 398.641 422.307 400.525C422.355 400.548 422.405 400.558 422.453 400.558Z" fill="#EBEBEB"/>
<path d="M422.512 397.085C422.636 397.084 422.754 397.015 422.813 396.896C422.895 396.729 422.826 396.528 422.659 396.446C418.636 394.479 414.314 396.389 414.133 396.473C413.964 396.549 413.889 396.749 413.966 396.918C414.042 397.087 414.241 397.165 414.411 397.085C414.453 397.066 418.628 395.223 422.363 397.05C422.411 397.074 422.461 397.085 422.512 397.085Z" fill="#EBEBEB"/>
<path d="M418.099 260.968C423.508 275.775 423.607 284.995 422.749 300.533C421.962 314.786 420.669 327.336 420.669 327.336C420.893 329.864 424.426 334.785 424.923 345.957C425.387 356.402 423.934 369.508 423.934 369.508C423.934 369.508 416.927 372.093 411.005 369.563C411.005 369.563 404.84 342.841 403.141 329.77C401.658 318.363 399.488 304.888 399.488 304.888L395.621 329.767C395.621 329.767 396.613 336.454 396.225 341.144C395.722 347.217 392.757 363.555 392.757 363.555C392.757 363.555 385.408 366.198 380.413 361.802C380.413 361.802 378.892 337.321 378.163 328.057C377.186 315.653 377.387 281.629 380.296 264.198L418.099 260.968Z" fill="#455A64"/>
<path d="M399.488 304.887L396.838 284.28C396.838 284.28 387.021 283.006 382.56 278.844C382.56 278.844 385.923 284.951 394.149 286.107L397.77 305.355L395.62 329.766L399.488 304.887Z" fill="#263238"/>
<path d="M402.101 229.122C402.168 229.091 402.235 229.059 402.302 229.028C414.948 223.07 420.029 209.033 419.409 195.725C419.213 191.513 418.501 187.282 416.824 183.413C415.147 179.544 412.453 176.045 408.858 173.841C406.103 172.153 402.92 171.303 399.712 171.092C396.784 170.9 392.991 170.945 390.231 172.077C389.031 172.569 388.811 172.46 387.519 172.17C386.536 171.949 385.517 171.883 384.514 171.988C381.732 172.28 379.363 173.905 377.63 176.039C375.296 178.911 375.016 183.2 375.825 186.68C376.198 188.286 378.445 190.646 378.349 192.172C378.21 194.396 376.594 196.131 374.814 198.084C373.103 199.961 371.057 201.452 370.2 204.281C369.464 206.712 369.329 211.863 374.767 213.838C366.852 224.311 374.662 229.985 378.979 231.493C381.699 232.442 385.12 232.948 387.977 232.582C392.779 231.969 397.676 231.182 402.101 229.122Z" fill="#37474F"/>
<path d="M374.754 246.898C379.406 242.108 387.824 231.264 387.824 231.264L392.583 214.778C392.699 214.825 390.156 214.832 389.39 214.786C384.249 215.129 382.731 215.567 379.532 219.069C376.992 221.849 367.3 235.088 363.93 239.539L354.988 228.149C352.846 224.906 353.193 221.282 352.081 218.636C350.969 215.99 349.171 214.822 347.733 212.43C346.294 210.037 345.951 208.48 344.769 209.699C343.587 210.918 344.951 214.219 345.128 214.97C345.305 215.721 347.106 217.956 344.097 216.795C341.088 215.634 336.434 210.125 335.232 209.001C334.03 207.877 333.402 209.619 333.672 210.994C333.943 212.369 332.65 215.481 333.118 217.76C333.615 220.178 333.972 221.283 336.303 223.631C338.474 225.819 343.79 228.5 345.868 231.368C347.946 234.236 352.383 243.16 355.094 248.536C358.54 255.37 361.476 257.623 365.351 255.322C369.226 253.021 373.03 248.674 374.754 246.898Z" fill="#FFA8A7"/>
<path d="M363.931 239.54C366.106 241.625 367.024 244.216 367.178 245.542C367.178 245.542 368.182 242.244 364.702 238.522L363.931 239.54Z" fill="#F28F8F"/>
<path d="M380.799 243.85C374.475 238.65 376.557 231.869 378.867 227.302C383.486 218.171 388.29 214.581 390.294 214.615L402.879 214.733C408.892 215.553 413.546 215.143 414.999 215.487C418.697 216.363 418.778 219.408 418.923 223.349C419.082 227.667 419.542 227.206 418.413 234.347C418.413 234.347 416.704 239.882 416.027 242.35C415.349 244.818 414.102 248.663 415.116 252.656C415.508 254.2 416.555 255.704 418.137 259.965C419.616 263.951 420.185 265.483 421.347 270.787C421.347 270.787 412.726 278.777 394.794 276.214C381.591 274.327 378.999 269.978 378.999 269.978L381.467 254.592C381.14 249.204 381.051 247.252 380.799 243.85Z" fill="#14B8A6"/>
<path opacity="0.1" d="M389.019 242.487C389.019 242.487 394.189 246.646 400.207 244.63C406.225 242.614 407.189 237.4 407.189 237.4C407.189 237.4 407.704 244.249 400.119 246.448C392.799 248.571 389.019 242.487 389.019 242.487Z" fill="black"/>
<path d="M434.152 202.064C431.467 198.721 424.143 190.375 422.804 188.705C421.883 187.556 420.625 186.656 419.635 186.324C418.522 185.95 417.434 185.173 416.702 184.455C416.179 183.941 415.051 181.774 414.594 181.201C413.059 179.273 411.798 178.137 409.78 176.722C407.66 175.235 405.645 174.545 403.473 173.134C402.193 172.302 400.627 171.471 402.029 170.076C402.467 169.64 403.022 169.315 403.63 169.201C406.599 168.644 409.805 169.579 413.526 170.553C415.264 171.008 416.876 171.492 418.24 172.026C419.105 172.365 419.996 172.707 420.726 173.289C421.696 174.063 422.299 175.191 422.948 176.249C424.691 179.089 428.673 180.991 431.146 183.163C434.048 185.712 436.911 187.846 440.218 190.654C443.195 193.182 446.874 196.479 449.223 199.599C451.26 202.305 450.648 203.92 449.832 205.122C445.698 211.21 436.5 218.116 433.229 220.818C429.734 223.705 427.287 225.5 424.167 228.291C422.599 229.693 419.364 233.163 417.97 234.883C417.561 235.387 416.839 235.582 416.269 235.272C412.661 233.304 410.254 223.244 413.046 217.058C413.761 215.474 414.502 215.411 414.502 215.411C420.201 211.406 434.152 202.064 434.152 202.064Z" fill="#FFA8A7"/>
<path d="M434.152 202.064C434.152 202.064 436.531 205.364 440.658 206.712C440.658 206.712 437.206 207.529 432.576 203.224L434.152 202.064Z" fill="#F28F8F"/>
<path d="M382.734 195.553C382.786 205.479 385.963 207.988 387.565 208.721C389.167 209.454 392.289 209.079 395.321 208.631L395.217 214.586C395.217 214.586 391.665 218.182 391.878 220.914C392.098 223.653 397.307 224.047 401.272 221.445C404.166 219.547 406.247 217.357 407.157 216.316C407.488 215.937 407.672 215.458 407.681 214.955L407.927 200.943C407.927 200.943 409.552 202.727 412.519 200.77C415.479 198.82 415.798 195.089 414.045 192.944C412.796 191.421 409.556 191.258 407.958 193.564C407.054 195.261 407.131 196.45 405.937 196.25C404.785 196.057 404.651 194.717 404.569 193.766C404.486 192.813 404.522 192.498 404.453 191.249C401.517 190.618 398.481 186.535 398.139 183.551C396.046 184.464 393.845 185.137 391.754 184.993C388.468 184.766 386.773 184.108 385.158 181.736C384.794 182.195 384.421 182.973 384.244 183.497C383.712 185.074 383.436 186.068 383.226 187.393C382.796 190.085 382.717 192.831 382.734 195.553Z" fill="#FFA8A7"/>
<path d="M395.323 208.63C398.521 208.267 405.119 206.497 406.187 203.919C406.187 203.919 405.818 205.544 403.827 207.191C401.837 208.837 395.288 210.617 395.288 210.617L395.323 208.63Z" fill="#F28F8F"/>
<path d="M392.103 203.282C392.09 204.001 392.663 204.595 393.382 204.607C394.101 204.619 394.695 204.047 394.707 203.327C394.72 202.608 394.147 202.014 393.427 202.002C392.709 201.99 392.116 202.563 392.103 203.282Z" fill="#B16668"/>
<path d="M393.772 193.51C393.718 194.296 394.289 194.973 395.045 195.022C395.802 195.071 396.458 194.474 396.511 193.688C396.564 192.902 395.994 192.225 395.238 192.176C394.481 192.127 393.825 192.724 393.772 193.51Z" fill="#263238"/>
<path d="M384.498 192.918C384.449 193.632 384.968 194.248 385.656 194.292C386.412 194.341 386.935 193.865 386.989 193.08C387.038 192.366 386.519 191.75 385.832 191.706C385.143 191.661 384.546 192.204 384.498 192.918Z" fill="#263238"/>
<path d="M390.909 191.633L389.915 199.924L385.667 198.161L390.909 191.633Z" fill="#F28F8F"/>
<path d="M398.738 189.926L396.266 187.577C395.623 188.296 395.656 189.404 396.338 190.052C397.021 190.701 398.095 190.645 398.738 189.926Z" fill="#263238"/>
<path d="M386.383 186.819L383.643 188.892C384.191 189.676 385.25 189.848 386.006 189.275C386.762 188.704 386.931 187.604 386.383 186.819Z" fill="#263238"/>
</svg>
